<?xml version="1.0" standalone="no"?><!DOCTYPE svg PUBLIC "-//W3C//DTD SVG 1.1//EN" "http://www.w3.org/Graphics/SVG/1.1/DTD/svg11.dtd"><svg width="200px" height="200px" version="1.1" xmlns="http://www.w3.org/2000/svg" xmlns:xlink="http://www.w3.org/1999/xlink" xml:space="preserve" style="fill-rule:evenodd;clip-rule:evenodd;stroke-linejoin:round;stroke-miterlimit:1.41421;"><g><g transform="matrix(0.15625,0,0,0.25,0,0)"><g transform="matrix(1.70385,0,0,1.06491,-1806.87,-420.053)"><path d="M1755.65,583.975c31.7183,54.0059 50.1836,117.894 50.1836,186.096c0,204.205 -165.541,369.746 -369.746,369.746c-204.205,0 -369.746,-165.541 -369.746,-369.746c0,-204.205 165.541,-369.746 369.746,-369.746c104.894,0 199.587,43.6794 266.941,113.911l-267.967,237.152l-176.206,-62.0597c-49.206,-16.7488 -58.4763,-3.13711 -27.8107,40.8349l186.927,214.275c17.5133,14.3237 33.97,13.0078 49.3701,-3.94764l288.309,-356.516Z" style="fill:#000;"/></g></g></g></svg>