<svg version="1.1" id="Layer_1" xmlns="http://www.w3.org/2000/svg" xmlns:xlink="http://www.w3.org/1999/xlink" x="0px" y="0px"
	 width="200px" height="100px" viewBox="0 0 200 100" style="enable-background:new 0 0 200 100;" xml:space="preserve">
<style type="text/css">
	.st0{fill:#4D4D4D;}
	.st1{font-family:'OpenSans-ExtraboldItalic';}
	.st2{font-size:60px;}
	.st3{clip-path:url(#SVGID_2_);}
	.st4{fill:#C5007C;}
	.st5{fill:#6300A5;}
	.st6{fill:#0010A5;}
	.st7{fill:#0064B5;}
	.st8{fill:#00A3C7;}
	.st9{fill:#0FAD00;}
	.st10{fill:#8CC700;}
	.st11{fill:#FFFF00;}
	.st12{fill:#FEC500;}
	.st13{fill:#FF9400;}
	.st14{fill:#FF6600;}
	.st15{fill:#FF0000;}
	.st16{opacity:0.5;}
</style>
<text transform="matrix(1 0 0 1 51.5015 86.7344)" class="st0 st1 st2">Listo</text>
<g>
	<defs>
		<path id="SVGID_1_" d="M27.887,9.228C13.486,9.228,1.81,20.903,1.81,35.305c0,0.309,0.009,0.623,0.023,0.94
			c0.098,2.739,0.614,5.37,1.493,7.832c5.563,18.287,24.562,42.143,24.562,42.143s18.996-23.853,24.56-42.14
			c0.88-2.461,1.396-5.094,1.493-7.834c0.015-0.317,0.024-0.631,0.024-0.94C53.965,20.903,42.289,9.228,27.887,9.228z
			 M27.887,48.077c-7.053,0-12.772-5.719-12.772-12.772c0-7.052,5.719-12.771,12.772-12.771c7.054,0,12.772,5.719,12.772,12.771
			C40.659,42.358,34.941,48.077,27.887,48.077z"/>
	</defs>
	<clipPath id="SVGID_2_">
		<use xlink:href="#SVGID_1_"  style="overflow:visible;"/>
	</clipPath>
	<g class="st3">
		<g>
			<g>
				<g>
					<g>
						<g>
							<g>
								<path class="st4" d="M65.774,70.616C72.303,63.57,76.259,56.07,78.39,46.704L27.461,35.118L65.774,70.616z"/>
								<path class="st5" d="M78.39,46.704c2.131-9.366,1.808-17.84-1.03-27.017L27.461,35.118L78.39,46.704z"/>
								<path class="st6" d="M77.36,19.687C74.522,10.51,70.006,3.333,62.959-3.195L27.461,35.118L77.36,19.687z"/>
								<path class="st7" d="M62.959-3.195c-7.046-6.529-14.546-10.485-23.912-12.616L27.461,35.118L62.959-3.195z"/>
								<path class="st8" d="M39.047-15.811c-9.366-2.131-17.84-1.808-27.017,1.03l15.431,49.899L39.047-15.811z"/>
								<path class="st9" d="M12.03-14.781C2.853-11.943-4.324-7.427-10.852-0.38l38.313,35.498L12.03-14.781z"/>
								<path class="st10" d="M-10.852-0.38c-6.529,7.046-10.485,14.546-12.616,23.912l50.929,11.586L-10.852-0.38z"/>
								<path class="st11" d="M-23.468,23.532c-2.131,9.366-1.808,17.84,1.03,27.017l49.899-15.431L-23.468,23.532z"/>
								<path class="st12" d="M27.461,35.118l-49.899,15.431c2.838,9.177,7.354,16.354,14.401,22.882L27.461,35.118z"/>
								<path class="st13" d="M-8.038,73.431c7.046,6.529,14.546,10.485,23.912,12.616l11.586-50.929L-8.038,73.431z"/>
								<path class="st14" d="M15.875,86.047c9.366,2.131,17.84,1.808,27.017-1.03L27.461,35.118L15.875,86.047z"/>
								<path class="st15" d="M42.892,85.017c9.177-2.838,16.354-7.354,22.882-14.401L27.461,35.118L42.892,85.017z"/>
							</g>
							<g class="st16">
								<path class="st4" d="M29.451,87.311c9.599-0.366,17.7-2.871,25.83-7.988l-27.82-44.205L29.451,87.311z"/>
								<path class="st5" d="M55.281,79.323c8.13-5.116,13.893-11.337,18.375-19.832L27.461,35.118L55.281,79.323z"/>
								<path class="st6" d="M73.656,59.491c4.482-8.496,6.363-16.764,5.997-26.363l-52.193,1.99L73.656,59.491z"/>
								<path class="st7" d="M79.654,33.128c-0.366-9.599-2.871-17.7-7.988-25.83l-44.205,27.82L79.654,33.128z"/>
								<path class="st8" d="M71.666,7.298C66.55-0.832,60.329-6.595,51.834-11.077L27.461,35.118L71.666,7.298z"/>
								<path class="st9" d="M51.834-11.077c-8.496-4.482-16.764-6.363-26.363-5.997l1.99,52.193L51.834-11.077z"/>
								<path class="st10" d="M25.471-17.075c-9.599,0.366-17.7,2.871-25.83,7.988l27.82,44.205L25.471-17.075z"/>
								<path class="st11" d="M-0.359-9.087c-8.13,5.116-13.893,11.337-18.375,19.832l46.195,24.373L-0.359-9.087z"/>
								<path class="st12" d="M-18.734,10.745c-4.482,8.496-6.363,16.764-5.997,26.363l52.193-1.99L-18.734,10.745z"/>
								<path class="st13" d="M-24.732,37.108c0.366,9.599,2.871,17.7,7.988,25.83l44.205-27.82L-24.732,37.108z"/>
								<path class="st14" d="M3.088,81.313l24.373-46.195l-44.205,27.82C-11.628,71.068-5.408,76.831,3.088,81.313z"/>
								<path class="st15" d="M3.088,81.313c8.496,4.482,16.764,6.363,26.363,5.997l-1.99-52.193L3.088,81.313z"/>
							</g>
						</g>
						<g class="st16">
							<g>
								<path class="st4" d="M49.273,82.576c8.728-4.011,15.254-9.426,20.807-17.264L27.461,35.118L49.273,82.576z"/>
								<path class="st5" d="M70.08,65.312c5.553-7.838,8.497-15.79,9.387-25.355l-52.006-4.839L70.08,65.312z"/>
								<path class="st6" d="M79.467,39.957c0.89-9.564-0.536-17.923-4.548-26.651L27.461,35.118L79.467,39.957z"/>
								<path class="st7" d="M74.919,13.306C70.908,4.578,65.493-1.948,57.655-7.501L27.461,35.118L74.919,13.306z"/>
								<path class="st8" d="M57.655-7.501c-7.838-5.553-15.79-8.497-25.355-9.387l-4.839,52.006L57.655-7.501z"/>
								<path class="st9" d="M32.3-16.888c-9.564-0.89-17.923,0.536-26.651,4.548l21.812,47.458L32.3-16.888z"/>
								<path class="st10" d="M5.649-12.34C-3.079-8.329-9.605-2.914-15.158,4.924l42.619,30.194L5.649-12.34z"/>
								<path class="st11" d="M-15.158,4.924c-5.553,7.838-8.497,15.79-9.387,25.355l52.006,4.839L-15.158,4.924z"/>
								<path class="st12" d="M27.461,35.118l-52.006-4.839c-0.89,9.564,0.536,17.923,4.548,26.651L27.461,35.118z"/>
								<path class="st13" d="M-19.997,56.93c4.011,8.728,9.426,15.254,17.264,20.807l30.194-42.619L-19.997,56.93z"/>
								<path class="st14" d="M-2.733,77.737c7.838,5.553,15.79,8.497,25.355,9.387l4.839-52.006L-2.733,77.737z"/>
								<path class="st15" d="M22.622,87.124c9.564,0.89,17.923-0.536,26.651-4.548L27.461,35.118L22.622,87.124z"/>
							</g>
							<g class="st16">
								<path class="st4" d="M9.326,84.099c9.008,3.335,17.451,4.121,26.92,2.505l-8.786-51.486L9.326,84.099z"/>
								<path class="st5" d="M36.247,86.604c9.469-1.616,17.174-5.157,24.566-11.291L27.461,35.118L36.247,86.604z"/>
								<path class="st6" d="M60.813,75.314c7.392-6.134,12.294-13.053,15.63-22.061L27.461,35.118L60.813,75.314z"/>
								<path class="st7" d="M76.442,53.253c3.335-9.008,4.121-17.451,2.505-26.92l-51.486,8.786L76.442,53.253z"/>
								<path class="st8" d="M78.947,26.332C77.331,16.863,73.79,9.159,67.657,1.766L27.461,35.118L78.947,26.332z"/>
								<path class="st9" d="M67.657,1.766c-6.134-7.392-13.053-12.294-22.061-15.63L27.461,35.118L67.657,1.766z"/>
								<path class="st10" d="M45.595-13.863c-9.008-3.335-17.451-4.121-26.92-2.505l8.786,51.486L45.595-13.863z"/>
								<path class="st11" d="M18.675-16.368C9.206-14.753,1.501-11.211-5.891-5.078l33.352,40.196L18.675-16.368z"/>
								<path class="st12" d="M-5.891-5.078c-7.392,6.134-12.294,13.053-15.63,22.061l48.981,18.134L-5.891-5.078z"/>
								<path class="st13" d="M-21.52,16.983c-3.335,9.008-4.121,17.451-2.505,26.92l51.486-8.786L-21.52,16.983z"/>
								<path class="st14" d="M-12.735,68.47l40.196-33.352l-51.486,8.786C-22.41,53.373-18.868,61.077-12.735,68.47z"/>
								<path class="st15" d="M-12.735,68.47c6.134,7.392,13.053,12.294,22.061,15.63l18.135-48.981L-12.735,68.47z"/>
							</g>
						</g>
					</g>
					<g class="st16">
						<g>
							<g>
								<path class="st4" d="M58.112,77.409c7.778-5.637,13.122-12.221,17.039-20.992l-47.69-21.299L58.112,77.409z"/>
								<path class="st5" d="M75.151,56.417c3.917-8.771,5.253-17.144,4.26-26.699l-51.951,5.4L75.151,56.417z"/>
								<path class="st6" d="M79.412,29.718c-0.993-9.554-4.023-17.474-9.66-25.252L27.461,35.118L79.412,29.718z"/>
								<path class="st7" d="M69.752,4.466C64.115-3.311,57.531-8.655,48.76-12.572l-21.299,47.69L69.752,4.466z"/>
								<path class="st8" d="M48.76-12.572c-8.771-3.917-17.144-5.253-26.699-4.26l5.4,51.951L48.76-12.572z"/>
								<path class="st9" d="M22.061-16.833C12.507-15.84,4.587-12.81-3.191-7.173l30.652,42.291L22.061-16.833z"/>
								<path class="st10" d="M-3.191-7.173C-10.968-1.536-16.312,5.048-20.23,13.819l47.69,21.299L-3.191-7.173z"/>
								<path class="st11" d="M-20.23,13.819c-3.917,8.771-5.253,17.144-4.26,26.699l51.951-5.4L-20.23,13.819z"/>
								<path class="st12" d="M27.461,35.118l-51.951,5.4c0.993,9.554,4.023,17.474,9.66,25.252L27.461,35.118z"/>
								<path class="st13" d="M-14.83,65.77c5.637,7.778,12.221,13.122,20.992,17.039l21.299-47.69L-14.83,65.77z"/>
								<path class="st14" d="M6.162,82.808c8.771,3.917,17.144,5.253,26.699,4.26l-5.4-51.951L6.162,82.808z"/>
								<path class="st15" d="M32.86,87.069c9.554-0.993,17.474-4.023,25.252-9.66L27.461,35.118L32.86,87.069z"/>
							</g>
							<g class="st16">
								<path class="st4" d="M19.231,86.696c9.486,1.514,17.92,0.637,26.892-2.795L27.461,35.118L19.231,86.696z"/>
								<path class="st5" d="M46.122,83.901c8.972-3.432,15.838-8.408,21.891-15.866L27.461,35.118L46.122,83.901z"/>
								<path class="st6" d="M68.014,68.035c6.054-7.458,9.512-15.201,11.025-24.686l-51.578-8.23L68.014,68.035z"/>
								<path class="st7" d="M79.039,43.348c1.514-9.486,0.637-17.92-2.795-26.892L27.461,35.118L79.039,43.348z"/>
								<path class="st8" d="M76.244,16.457C72.812,7.485,67.836,0.619,60.378-5.435L27.461,35.118L76.244,16.457z"/>
								<path class="st9" d="M60.378-5.435c-7.458-6.054-15.201-9.512-24.686-11.025l-8.23,51.578L60.378-5.435z"/>
								<path class="st10" d="M35.691-16.46c-9.486-1.514-17.92-0.637-26.892,2.795l18.661,48.783L35.691-16.46z"/>
								<path class="st11" d="M8.8-13.665C-0.172-10.233-7.038-5.257-13.092,2.201l40.553,32.917L8.8-13.665z"/>
								<path class="st12" d="M-13.092,2.201c-6.054,7.458-9.512,15.201-11.025,24.686l51.578,8.23L-13.092,2.201z"/>
								<path class="st13" d="M-24.117,26.888c-1.514,9.486-0.637,17.92,2.795,26.892l48.783-18.661L-24.117,26.888z"/>
								<path class="st14" d="M-5.456,75.671l32.917-40.553l-48.783,18.661C-17.89,62.751-12.914,69.617-5.456,75.671z"/>
								<path class="st15" d="M-5.456,75.671c7.458,6.054,15.201,9.512,24.686,11.025l8.23-51.578L-5.456,75.671z"/>
							</g>
						</g>
						<g class="st16">
							<g>
								<path class="st4" d="M39.595,85.92c9.343-2.232,16.8-6.269,23.775-12.873L27.461,35.118L39.595,85.92z"/>
								<path class="st5" d="M63.37,73.046c6.975-6.604,11.414-13.829,14.153-23.036L27.461,35.118L63.37,73.046z"/>
								<path class="st6" d="M77.523,50.01c2.739-9.207,2.971-17.684,0.739-27.026L27.461,35.118L77.523,50.01z"/>
								<path class="st7" d="M78.262,22.984c-2.232-9.343-6.269-16.8-12.873-23.775L27.461,35.118L78.262,22.984z"/>
								<path class="st8" d="M65.389-0.791C58.785-7.767,51.56-12.206,42.353-14.945L27.461,35.118L65.389-0.791z"/>
								<path class="st9" d="M42.353-14.945c-9.207-2.739-17.684-2.971-27.026-0.739l12.134,50.802L42.353-14.945z"/>
								<path class="st10" d="M15.327-15.684C5.984-13.452-1.473-9.414-8.448-2.81l35.909,37.928L15.327-15.684z"/>
								<path class="st11" d="M-8.448-2.81c-6.975,6.604-11.414,13.829-14.153,23.036l50.063,14.892L-8.448-2.81z"/>
								<path class="st12" d="M27.461,35.118l-50.063-14.892c-2.739,9.207-2.971,17.683-0.739,27.026L27.461,35.118z"/>
								<path class="st13" d="M-23.341,47.252c2.232,9.343,6.269,16.8,12.873,23.775l37.928-35.909L-23.341,47.252z"/>
								<path class="st14" d="M-10.467,71.027c6.604,6.975,13.829,11.414,23.036,14.153l14.892-50.063L-10.467,71.027z"/>
								<path class="st15" d="M12.569,85.181c9.207,2.739,17.684,2.971,27.026,0.739L27.461,35.118L12.569,85.181z"/>
							</g>
							<g class="st16">
								<path class="st4" d="M0.119,79.62c8.184,5.028,16.312,7.446,25.914,7.709l1.428-52.211L0.119,79.62z"/>
								<path class="st5" d="M26.033,87.329c9.602,0.263,17.85-1.707,26.297-6.281l-24.869-45.93L26.033,87.329z"/>
								<path class="st6" d="M52.33,81.048c8.447-4.574,14.605-10.404,19.633-18.588L27.461,35.118L52.33,81.048z"/>
								<path class="st7" d="M71.963,62.46c5.028-8.184,7.446-16.312,7.709-25.914l-52.211-1.428L71.963,62.46z"/>
								<path class="st8" d="M79.672,36.546c0.263-9.602-1.707-17.85-6.281-26.297l-45.93,24.869L79.672,36.546z"/>
								<path class="st9" d="M73.391,10.249C68.817,1.802,62.987-4.356,54.803-9.384L27.461,35.118L73.391,10.249z"/>
								<path class="st10" d="M54.803-9.384c-8.184-5.028-16.312-7.446-25.914-7.709l-1.428,52.211L54.803-9.384z"/>
								<path class="st11" d="M28.888-17.093c-9.602-0.263-17.85,1.707-26.297,6.281l24.869,45.93L28.888-17.093z"/>
								<path class="st12" d="M2.592-10.812C-5.855-6.238-12.013-0.408-17.041,7.776l44.502,27.342L2.592-10.812z"/>
								<path class="st13" d="M-17.041,7.776c-5.028,8.184-7.446,16.312-7.709,25.914l52.211,1.428L-17.041,7.776z"/>
								<path class="st14" d="M-18.469,59.987l45.93-24.869L-24.75,33.69C-25.013,43.293-23.043,51.54-18.469,59.987z"/>
								<path class="st15" d="M-18.469,59.987c4.574,8.447,10.404,14.605,18.588,19.633l27.342-44.502L-18.469,59.987z"/>
							</g>
						</g>
					</g>
				</g>
				<g class="st16">
					<g>
						<g>
							<g>
								<path class="st4" d="M62.11,74.201c7.188-6.372,11.861-13.448,14.899-22.561L27.461,35.118L62.11,74.201z"/>
								<path class="st5" d="M77.009,51.64c3.039-9.112,3.548-17.577,1.623-26.988L27.461,35.118L77.009,51.64z"/>
								<path class="st6" d="M78.632,24.652c-1.925-9.411-5.716-16.996-12.088-24.184L27.461,35.118L78.632,24.652z"/>
								<path class="st7" d="M66.544,0.469C60.171-6.719,53.096-11.392,43.983-14.43L27.461,35.118L66.544,0.469z"/>
								<path class="st8" d="M43.983-14.43c-9.112-3.039-17.577-3.548-26.988-1.623l10.466,51.171L43.983-14.43z"/>
								<path class="st9" d="M16.995-16.053C7.584-14.129,0-10.337-7.188-3.965l34.649,39.083L16.995-16.053z"/>
								<path class="st10" d="M-7.188-3.965c-7.188,6.372-11.861,13.448-14.899,22.561l49.548,16.522L-7.188-3.965z"/>
								<path class="st11" d="M-22.088,18.596c-3.039,9.113-3.548,17.577-1.623,26.988l51.171-10.466L-22.088,18.596z"/>
								<path class="st12" d="M27.461,35.118L-23.71,45.584c1.925,9.411,5.716,16.996,12.088,24.184L27.461,35.118z"/>
								<path class="st13" d="M-11.622,69.767c6.372,7.188,13.448,11.861,22.561,14.899l16.522-49.548L-11.622,69.767z"/>
								<path class="st14" d="M10.939,84.666c9.113,3.039,17.577,3.548,26.988,1.623L27.461,35.118L10.939,84.666z"/>
								<path class="st15" d="M37.927,86.289c9.411-1.925,16.996-5.716,24.184-12.088L27.461,35.118L37.927,86.289z"/>
							</g>
							<g class="st16">
								<path class="st4" d="M24.326,87.254c9.588,0.577,17.896-1.123,26.488-5.417L27.461,35.118L24.326,87.254z"/>
								<path class="st5" d="M50.814,81.837c8.592-4.295,14.937-9.92,20.231-17.936L27.461,35.118L50.814,81.837z"/>
								<path class="st6" d="M71.045,63.901c5.294-8.016,7.976-16.06,8.552-25.648l-52.136-3.135L71.045,63.901z"/>
								<path class="st7" d="M79.597,38.253c0.577-9.588-1.123-17.896-5.417-26.488L27.461,35.118L79.597,38.253z"/>
								<path class="st8" d="M74.18,11.765C69.885,3.173,64.26-3.172,56.244-8.466L27.461,35.118L74.18,11.765z"/>
								<path class="st9" d="M56.244-8.466c-8.016-5.294-16.06-7.976-25.648-8.553l-3.135,52.136L56.244-8.466z"/>
								<path class="st10" d="M30.596-17.018c-9.588-0.577-17.896,1.123-26.488,5.417l23.353,46.719L30.596-17.018z"/>
								<path class="st11" d="M4.108-11.601c-8.592,4.295-14.937,9.92-20.231,17.936l43.584,28.783L4.108-11.601z"/>
								<path class="st12" d="M-16.123,6.335c-5.294,8.016-7.976,16.06-8.553,25.648l52.136,3.135L-16.123,6.335z"/>
								<path class="st13" d="M-24.675,31.983c-0.577,9.588,1.123,17.896,5.417,26.488l46.719-23.353L-24.675,31.983z"/>
								<path class="st14" d="M-1.322,78.702l28.783-43.584l-46.719,23.353C-14.963,67.063-9.338,73.408-1.322,78.702z"/>
								<path class="st15" d="M-1.322,78.702c8.016,5.294,16.06,7.976,25.648,8.553l3.135-52.136L-1.322,78.702z"/>
							</g>
						</g>
						<g class="st16">
							<g>
								<path class="st4" d="M44.516,84.486c9.079-3.137,16.104-7.886,22.399-15.142L27.461,35.118L44.516,84.486z"/>
								<path class="st5" d="M66.915,69.344c6.295-7.256,10.004-14.881,11.827-24.312l-51.281-9.913L66.915,69.344z"/>
								<path class="st6" d="M78.742,45.031c1.823-9.431,1.223-17.89-1.914-26.969L27.461,35.118L78.742,45.031z"/>
								<path class="st7" d="M76.828,18.063C73.692,8.983,68.943,1.958,61.687-4.336L27.461,35.118L76.828,18.063z"/>
								<path class="st8" d="M61.687-4.336c-7.256-6.295-14.881-10.004-24.312-11.827l-9.913,51.281L61.687-4.336z"/>
								<path class="st9" d="M37.374-16.163c-9.431-1.823-17.89-1.223-26.969,1.914l17.055,49.368L37.374-16.163z"/>
								<path class="st10" d="M10.406-14.25C1.326-11.113-5.699-6.364-11.993,0.892l39.454,34.226L10.406-14.25z"/>
								<path class="st11" d="M-11.993,0.892c-6.295,7.256-10.004,14.881-11.827,24.312l51.281,9.913L-11.993,0.892z"/>
								<path class="st12" d="M27.461,35.118l-51.281-9.913c-1.823,9.431-1.223,17.89,1.914,26.969L27.461,35.118z"/>
								<path class="st13" d="M-21.907,52.173c3.137,9.079,7.886,16.104,15.142,22.399l34.226-39.454L-21.907,52.173z"/>
								<path class="st14" d="M-6.765,74.572c7.256,6.295,14.881,10.004,24.312,11.827l9.913-51.281L-6.765,74.572z"/>
								<path class="st15" d="M17.547,86.399c9.431,1.823,17.89,1.223,26.969-1.914L27.461,35.118L17.547,86.399z"/>
							</g>
							<g class="st16">
								<path class="st4" d="M4.613,82.086c8.638,4.202,16.963,5.811,26.545,5.132l-3.697-52.1L4.613,82.086z"/>
								<path class="st5" d="M31.158,87.218c9.582-0.68,17.596-3.449,25.555-8.828L27.461,35.118L31.158,87.218z"/>
								<path class="st6" d="M56.712,78.389c7.958-5.38,13.515-11.785,17.717-20.423L27.461,35.118L56.712,78.389z"/>
								<path class="st7" d="M74.429,57.966c4.202-8.638,5.811-16.963,5.132-26.545l-52.1,3.697L74.429,57.966z"/>
								<path class="st8" d="M79.561,31.421c-0.68-9.582-3.449-17.596-8.828-25.555L27.461,35.118L79.561,31.421z"/>
								<path class="st9" d="M70.732,5.867C65.352-2.091,58.947-7.648,50.309-11.85L27.461,35.118L70.732,5.867z"/>
								<path class="st10" d="M50.309-11.85c-8.638-4.202-16.963-5.811-26.545-5.132l3.697,52.1L50.309-11.85z"/>
								<path class="st11" d="M23.764-16.982c-9.582,0.68-17.596,3.449-25.555,8.828l29.251,43.271L23.764-16.982z"/>
								<path class="st12" d="M-1.79-8.153C-9.749-2.773-15.305,3.632-19.507,12.27l46.968,22.848L-1.79-8.153z"/>
								<path class="st13" d="M-19.507,12.27c-4.202,8.638-5.811,16.963-5.132,26.545l52.1-3.697L-19.507,12.27z"/>
								<path class="st14" d="M-15.81,64.369l43.271-29.251l-52.1,3.697C-23.959,48.397-21.19,56.411-15.81,64.369z"/>
								<path class="st15" d="M-15.81,64.369c5.38,7.958,11.785,13.515,20.423,17.717l22.848-46.968L-15.81,64.369z"/>
							</g>
						</g>
					</g>
					<g class="st16">
						<g>
							<g>
								<path class="st4" d="M53.82,80.21c8.293-4.848,14.256-10.876,19.014-19.22L27.461,35.118L53.82,80.21z"/>
								<path class="st5" d="M72.834,60.989c4.758-8.345,6.908-16.547,6.857-26.153l-52.23,0.281L72.834,60.989z"/>
								<path class="st6" d="M79.691,34.837c-0.052-9.606-2.291-17.784-7.138-26.077L27.461,35.118L79.691,34.837z"/>
								<path class="st7" d="M72.553,8.759c-4.848-8.293-10.876-14.256-19.22-19.014L27.461,35.118L72.553,8.759z"/>
								<path class="st8" d="M53.332-10.255c-8.345-4.758-16.547-6.908-26.153-6.857l0.281,52.23L53.332-10.255z"/>
								<path class="st9" d="M27.179-17.112C17.574-17.06,9.395-14.821,1.102-9.974l26.359,45.092L27.179-17.112z"/>
								<path class="st10" d="M1.102-9.974C-7.191-5.126-13.154,0.902-17.912,9.247l45.373,25.871L1.102-9.974z"/>
								<path class="st11" d="M-17.912,9.247c-4.758,8.345-6.908,16.547-6.857,26.153l52.23-0.282L-17.912,9.247z"/>
								<path class="st12" d="M27.461,35.118l-52.23,0.282c0.052,9.606,2.291,17.784,7.138,26.077L27.461,35.118z"/>
								<path class="st13" d="M-17.631,61.477c4.848,8.293,10.876,14.256,19.22,19.014l25.871-45.373L-17.631,61.477z"/>
								<path class="st14" d="M1.59,80.491c8.345,4.758,16.547,6.908,26.153,6.857l-0.281-52.23L1.59,80.491z"/>
								<path class="st15" d="M27.742,87.348c9.606-0.052,17.784-2.291,26.077-7.138L27.461,35.118L27.742,87.348z"/>
							</g>
							<g class="st16">
								<path class="st4" d="M14.215,85.641c9.292,2.436,17.771,2.39,27.036-0.146l-13.79-50.377L14.215,85.641z"/>
								<path class="st5" d="M41.251,85.495c9.265-2.536,16.586-6.815,23.341-13.644L27.461,35.118L41.251,85.495z"/>
								<path class="st6" d="M64.592,71.851c6.756-6.829,10.956-14.195,13.392-23.487L27.461,35.118L64.592,71.851z"/>
								<path class="st7" d="M77.984,48.364c2.436-9.292,2.39-17.771-0.146-27.036l-50.377,13.79L77.984,48.364z"/>
								<path class="st8" d="M77.838,21.328c-2.536-9.265-6.815-16.586-13.644-23.341L27.461,35.118L77.838,21.328z"/>
								<path class="st9" d="M64.194-2.013c-6.829-6.756-14.195-10.956-23.487-13.392L27.461,35.118L64.194-2.013z"/>
								<path class="st10" d="M40.707-15.405c-9.292-2.436-17.771-2.39-27.036,0.146l13.79,50.377L40.707-15.405z"/>
								<path class="st11" d="M13.671-15.259C4.406-12.723-2.915-8.444-9.67-1.615l37.131,36.733L13.671-15.259z"/>
								<path class="st12" d="M-9.67-1.615c-6.756,6.829-10.956,14.195-13.392,23.487l50.523,13.246L-9.67-1.615z"/>
								<path class="st13" d="M-23.062,21.872c-2.436,9.292-2.39,17.771,0.146,27.036l50.377-13.79L-23.062,21.872z"/>
								<path class="st14" d="M-9.272,72.249l36.733-37.131l-50.377,13.79C-20.38,58.173-16.101,65.494-9.272,72.249z"/>
								<path class="st15" d="M-9.272,72.249c6.829,6.756,14.195,10.956,23.487,13.392l13.246-50.523L-9.272,72.249z"/>
							</g>
						</g>
						<g class="st16">
							<g>
								<path class="st4" d="M34.557,86.864c9.517-1.305,17.333-4.592,24.922-10.481L27.461,35.118L34.557,86.864z"/>
								<path class="st5" d="M59.48,76.383c7.589-5.889,12.715-12.644,16.343-21.538L27.461,35.118L59.48,76.383z"/>
								<path class="st6" d="M75.823,54.845c3.628-8.894,4.69-17.307,3.384-26.824l-51.746,7.096L75.823,54.845z"/>
								<path class="st7" d="M79.207,28.022c-1.305-9.517-4.592-17.333-10.481-24.922L27.461,35.118L79.207,28.022z"/>
								<path class="st8" d="M68.726,3.099C62.838-4.49,56.083-9.616,47.188-13.244L27.461,35.118L68.726,3.099z"/>
								<path class="st9" d="M47.188-13.244c-8.894-3.628-17.307-4.69-26.824-3.384l7.096,51.746L47.188-13.244z"/>
								<path class="st10" d="M20.364-16.628C10.848-15.323,3.031-12.036-4.558-6.147l32.019,41.265L20.364-16.628z"/>
								<path class="st11" d="M-4.558-6.147c-7.589,5.889-12.715,12.644-16.343,21.538l48.362,19.727L-4.558-6.147z"/>
								<path class="st12" d="M27.461,35.118l-48.362-19.727c-3.628,8.894-4.69,17.307-3.384,26.824L27.461,35.118z"/>
								<path class="st13" d="M-24.285,42.214c1.305,9.517,4.592,17.333,10.481,24.922l41.265-32.019L-24.285,42.214z"/>
								<path class="st14" d="M-13.804,67.137C-7.916,74.726-1.161,79.852,7.733,83.48l19.727-48.362L-13.804,67.137z"/>
								<path class="st15" d="M7.733,83.48c8.894,3.628,17.307,4.69,26.824,3.384l-7.096-51.746L7.733,83.48z"/>
							</g>
							<g class="st16">
								<path class="st4" d="M-4.111,76.726c7.652,5.806,15.504,9.009,25.034,10.212l6.538-51.82L-4.111,76.726z"/>
								<path class="st5" d="M20.923,86.938c9.53,1.202,17.931,0.05,26.786-3.673L27.461,35.118L20.923,86.938z"/>
								<path class="st6" d="M47.708,83.264c8.855-3.724,15.554-8.922,21.361-16.574L27.461,35.118L47.708,83.264z"/>
								<path class="st7" d="M69.069,66.69c5.806-7.652,9.009-15.504,10.212-25.034l-51.82-6.538L69.069,66.69z"/>
								<path class="st8" d="M79.281,41.656c1.202-9.53,0.05-17.931-3.673-26.786L27.461,35.118L79.281,41.656z"/>
								<path class="st9" d="M75.607,14.87C71.884,6.016,66.685-0.684,59.033-6.49L27.461,35.118L75.607,14.87z"/>
								<path class="st10" d="M59.033-6.49c-7.652-5.806-15.504-9.009-25.034-10.212l-6.538,51.82L59.033-6.49z"/>
								<path class="st11" d="M33.999-16.702c-9.53-1.202-17.931-0.05-26.786,3.673l20.248,48.146L33.999-16.702z"/>
								<path class="st12" d="M7.213-13.028C-1.641-9.305-8.341-4.106-14.147,3.546l41.608,31.572L7.213-13.028z"/>
								<path class="st13" d="M-14.147,3.546c-5.806,7.652-9.009,15.504-10.212,25.034l51.82,6.538L-14.147,3.546z"/>
								<path class="st14" d="M-20.685,55.366l48.146-20.248l-51.82-6.538C-25.561,38.11-24.409,46.511-20.685,55.366z"/>
								<path class="st15" d="M-20.685,55.366c3.724,8.855,8.922,15.554,16.574,21.361l31.572-41.608L-20.685,55.366z"/>
							</g>
						</g>
					</g>
				</g>
			</g>
			<g class="st16">
				<g>
					<g>
						<g>
							<g>
								<path class="st4" d="M63.986,72.454c6.866-6.717,11.187-14.014,13.774-23.265l-50.3-14.071L63.986,72.454z"/>
								<path class="st5" d="M77.76,49.189c2.588-9.251,2.681-17.73,0.297-27.035L27.461,35.118L77.76,49.189z"/>
								<path class="st6" d="M78.057,22.154c-2.384-9.305-6.543-16.695-13.261-23.561L27.461,35.118L78.057,22.154z"/>
								<path class="st7" d="M64.797-1.407c-6.717-6.866-14.014-11.187-23.265-13.774l-14.071,50.3L64.797-1.407z"/>
								<path class="st8" d="M41.532-15.182c-9.251-2.588-17.73-2.681-27.035-0.297l12.964,50.596L41.532-15.182z"/>
								<path class="st9" d="M14.497-15.478C5.192-13.094-2.198-8.935-9.064-2.218l36.525,37.336L14.497-15.478z"/>
								<path class="st10" d="M-9.064-2.218C-15.931,4.5-20.251,11.796-22.839,21.047l50.3,14.071L-9.064-2.218z"/>
								<path class="st11" d="M-22.839,21.047c-2.588,9.251-2.681,17.73-0.297,27.035l50.596-12.964L-22.839,21.047z"/>
								<path class="st12" d="M27.461,35.118l-50.596,12.964c2.384,9.305,6.543,16.695,13.261,23.561L27.461,35.118z"/>
								<path class="st13" d="M-9.875,71.643C-3.157,78.51,4.139,82.83,13.39,85.418l14.071-50.3L-9.875,71.643z"/>
								<path class="st14" d="M13.39,85.418c9.251,2.588,17.73,2.681,27.035,0.297L27.461,35.118L13.39,85.418z"/>
								<path class="st15" d="M40.425,85.714c9.305-2.384,16.695-6.543,23.561-13.261L27.461,35.118L40.425,85.714z"/>
							</g>
							<g class="st16">
								<path class="st4" d="M26.888,87.345c9.605,0.105,17.819-1.999,26.191-6.711L27.461,35.118L26.888,87.345z"/>
								<path class="st5" d="M53.078,80.635c8.371-4.711,14.432-10.641,19.326-18.907l-44.944-26.61L53.078,80.635z"/>
								<path class="st6" d="M72.405,61.728c4.894-8.266,7.178-16.432,7.284-26.037l-52.227-0.573L72.405,61.728z"/>
								<path class="st7" d="M79.688,35.691c0.105-9.605-1.999-17.819-6.711-26.19L27.461,35.118L79.688,35.691z"/>
								<path class="st8" d="M72.978,9.501C68.266,1.13,62.337-4.932,54.071-9.826l-26.61,44.944L72.978,9.501z"/>
								<path class="st9" d="M54.071-9.826c-8.266-4.894-16.432-7.178-26.037-7.284l-0.573,52.227L54.071-9.826z"/>
								<path class="st10" d="M28.034-17.109c-9.605-0.105-17.819,1.999-26.191,6.711l25.617,45.517L28.034-17.109z"/>
								<path class="st11" d="M1.844-10.399C-6.528-5.688-12.589,0.242-17.483,8.508l44.944,26.61L1.844-10.399z"/>
								<path class="st12" d="M-17.483,8.508c-4.894,8.266-7.178,16.432-7.284,26.037l52.227,0.573L-17.483,8.508z"/>
								<path class="st13" d="M-24.767,34.545c-0.105,9.605,1.999,17.819,6.711,26.19l45.517-25.617L-24.767,34.545z"/>
								<path class="st14" d="M0.851,80.062l26.61-44.944l-45.517,25.617C-13.345,69.106-7.415,75.168,0.851,80.062z"/>
								<path class="st15" d="M0.851,80.062c8.266,4.894,16.432,7.178,26.037,7.284l0.573-52.227L0.851,80.062z"/>
							</g>
						</g>
						<g class="st16">
							<g>
								<path class="st4" d="M46.918,83.589c8.914-3.578,15.698-8.666,21.629-16.222L27.461,35.118L46.918,83.589z"/>
								<path class="st5" d="M68.547,67.367c5.931-7.556,9.262-15.354,10.62-24.863l-51.706-7.385L68.547,67.367z"/>
								<path class="st6" d="M79.167,42.503c1.358-9.509,0.344-17.928-3.235-26.842L27.461,35.118L79.167,42.503z"/>
								<path class="st7" d="M75.932,15.661C72.354,6.747,67.266-0.037,59.71-5.968L27.461,35.118L75.932,15.661z"/>
								<path class="st8" d="M59.71-5.968c-7.556-5.931-15.354-9.262-24.863-10.62l-7.385,51.706L59.71-5.968z"/>
								<path class="st9" d="M34.846-16.588c-9.509-1.358-17.928-0.344-26.842,3.235l19.457,48.471L34.846-16.588z"/>
								<path class="st10" d="M8.004-13.353C-0.911-9.775-7.694-4.687-13.625,2.869l41.086,32.249L8.004-13.353z"/>
								<path class="st11" d="M-13.625,2.869c-5.931,7.556-9.262,15.354-10.62,24.863l51.706,7.385L-13.625,2.869z"/>
								<path class="st12" d="M27.461,35.118l-51.706-7.385c-1.358,9.509-0.344,17.928,3.235,26.842L27.461,35.118z"/>
								<path class="st13" d="M-21.01,54.575c3.578,8.914,8.666,15.698,16.222,21.629l32.249-41.086L-21.01,54.575z"/>
								<path class="st14" d="M-4.788,76.204c7.556,5.931,15.354,9.262,24.863,10.62l7.385-51.706L-4.788,76.204z"/>
								<path class="st15" d="M20.076,86.824c9.509,1.358,17.928,0.344,26.842-3.235L27.461,35.118L20.076,86.824z"/>
							</g>
							<g class="st16">
								<path class="st4" d="M6.945,83.151c8.834,3.773,17.228,4.972,26.765,3.823l-6.249-51.855L6.945,83.151z"/>
								<path class="st5" d="M33.71,86.973c9.537-1.149,17.406-4.308,25.091-10.072L27.461,35.118L33.71,86.973z"/>
								<path class="st6" d="M58.8,76.902c7.684-5.764,12.92-12.434,16.693-21.268L27.461,35.118L58.8,76.902z"/>
								<path class="st7" d="M75.493,55.634c3.773-8.834,4.972-17.228,3.823-26.765l-51.855,6.249L75.493,55.634z"/>
								<path class="st8" d="M79.316,28.869c-1.149-9.537-4.308-17.406-10.072-25.091L27.461,35.118L79.316,28.869z"/>
								<path class="st9" d="M69.245,3.779c-5.764-7.684-12.434-12.92-21.268-16.693L27.461,35.118L69.245,3.779z"/>
								<path class="st10" d="M47.977-12.915c-8.834-3.773-17.228-4.972-26.765-3.823l6.249,51.855L47.977-12.915z"/>
								<path class="st11" d="M21.212-16.737C11.675-15.588,3.806-12.429-3.878-6.666l31.339,41.784L21.212-16.737z"/>
								<path class="st12" d="M-3.878-6.666c-7.684,5.764-12.92,12.434-16.693,21.268l48.033,20.516L-3.878-6.666z"/>
								<path class="st13" d="M-20.572,14.602c-3.773,8.834-4.972,17.228-3.823,26.765l51.855-6.249L-20.572,14.602z"/>
								<path class="st14" d="M-14.323,66.457l41.784-31.339l-51.855,6.249C-23.245,50.904-20.086,58.773-14.323,66.457z"/>
								<path class="st15" d="M-14.323,66.457c5.764,7.684,12.434,12.92,21.268,16.693l20.516-48.033L-14.323,66.457z"/>
							</g>
						</g>
					</g>
					<g class="st16">
						<g>
							<g>
								<path class="st4" d="M56,78.862c8.045-5.249,13.706-11.562,18.048-20.13L27.461,35.118L56,78.862z"/>
								<path class="st5" d="M74.049,58.732c4.343-8.568,6.088-16.866,5.565-26.458l-52.153,2.844L74.049,58.732z"/>
								<path class="st6" d="M79.614,32.274c-0.523-9.592-3.16-17.651-8.409-25.696L27.461,35.118L79.614,32.274z"/>
								<path class="st7" d="M71.205,6.578C65.956-1.466,59.643-7.127,51.075-11.47L27.461,35.118L71.205,6.578z"/>
								<path class="st8" d="M51.075-11.47c-8.568-4.343-16.866-6.088-26.458-5.565l2.844,52.153L51.075-11.47z"/>
								<path class="st9" d="M24.617-17.035c-9.592,0.523-17.651,3.16-25.696,8.409l28.539,43.744L24.617-17.035z"/>
								<path class="st10" d="M-1.079-8.626c-8.045,5.249-13.706,11.562-18.048,20.13l46.588,23.614L-1.079-8.626z"/>
								<path class="st11" d="M-19.127,11.504c-4.343,8.568-6.088,16.866-5.565,26.458l52.153-2.844L-19.127,11.504z"/>
								<path class="st12" d="M27.461,35.118l-52.153,2.844c0.523,9.592,3.16,17.651,8.409,25.696L27.461,35.118z"/>
								<path class="st13" d="M-16.283,63.657c5.249,8.045,11.562,13.706,20.13,18.048l23.614-46.588L-16.283,63.657z"/>
								<path class="st14" d="M3.847,81.706c8.568,4.343,16.866,6.088,26.458,5.565l-2.844-52.153L3.847,81.706z"/>
								<path class="st15" d="M30.305,87.271c9.592-0.523,17.651-3.16,25.696-8.409L27.461,35.118L30.305,87.271z"/>
							</g>
							<g class="st16">
								<path class="st4" d="M16.71,86.23c9.4,1.977,17.867,1.516,26.996-1.472l-16.245-49.64L16.71,86.23z"/>
								<path class="st5" d="M43.706,84.758c9.129-2.988,16.231-7.621,22.644-14.773L27.461,35.118L43.706,84.758z"/>
								<path class="st6" d="M66.35,69.985c6.412-7.152,10.246-14.716,12.223-24.116L27.461,35.118L66.35,69.985z"/>
								<path class="st7" d="M78.573,45.869c1.977-9.4,1.516-17.867-1.472-26.996l-49.64,16.245L78.573,45.869z"/>
								<path class="st8" d="M77.101,18.873C74.113,9.743,69.48,2.642,62.328-3.771L27.461,35.118L77.101,18.873z"/>
								<path class="st9" d="M62.328-3.771c-7.152-6.412-14.716-10.246-24.116-12.223L27.461,35.118L62.328-3.771z"/>
								<path class="st10" d="M38.212-15.994c-9.4-1.977-17.867-1.516-26.996,1.472l16.245,49.64L38.212-15.994z"/>
								<path class="st11" d="M11.216-14.522C2.086-11.534-5.015-6.901-11.428,0.251l38.889,34.867L11.216-14.522z"/>
								<path class="st12" d="M-11.428,0.251c-6.412,7.152-10.246,14.716-12.223,24.116l51.112,10.751L-11.428,0.251z"/>
								<path class="st13" d="M-23.651,24.367c-1.977,9.4-1.516,17.867,1.472,26.996l49.64-16.245L-23.651,24.367z"/>
								<path class="st14" d="M-7.406,74.007l34.867-38.889l-49.64,16.245C-19.191,60.493-14.558,67.594-7.406,74.007z"/>
								<path class="st15" d="M-7.406,74.007C-0.254,80.419,7.31,84.253,16.71,86.23l10.751-51.112L-7.406,74.007z"/>
							</g>
						</g>
						<g class="st16">
							<g>
								<path class="st4" d="M37.088,86.454c9.441-1.771,17.087-5.437,24.378-11.691L27.461,35.118L37.088,86.454z"/>
								<path class="st5" d="M61.466,74.763c7.291-6.254,12.079-13.252,15.266-22.314L27.461,35.118L61.466,74.763z"/>
								<path class="st6" d="M76.732,52.449c3.187-9.062,3.835-17.516,2.064-26.958l-51.336,9.627L76.732,52.449z"/>
								<path class="st7" d="M78.797,25.491C77.026,16.05,73.359,8.404,67.105,1.113L27.461,35.118L78.797,25.491z"/>
								<path class="st8" d="M67.105,1.113c-6.254-7.291-13.252-12.079-22.314-15.266L27.461,35.118L67.105,1.113z"/>
								<path class="st9" d="M44.792-14.154c-9.062-3.187-17.516-3.835-26.958-2.064l9.627,51.336L44.792-14.154z"/>
								<path class="st10" d="M17.834-16.218C8.393-14.447,0.747-10.78-6.544-4.527l34.005,39.645L17.834-16.218z"/>
								<path class="st11" d="M-6.544-4.527c-7.291,6.254-12.079,13.252-15.266,22.314l49.272,17.331L-6.544-4.527z"/>
								<path class="st12" d="M27.461,35.118l-49.272-17.331c-3.187,9.062-3.835,17.516-2.064,26.958L27.461,35.118z"/>
								<path class="st13" d="M-23.875,44.745c1.771,9.441,5.437,17.087,11.691,24.378l39.645-34.005L-23.875,44.745z"/>
								<path class="st14" d="M-12.184,69.123C-5.93,76.414,1.069,81.202,10.13,84.39l17.331-49.272L-12.184,69.123z"/>
								<path class="st15" d="M10.13,84.39c9.062,3.187,17.516,3.835,26.958,2.064l-9.627-51.336L10.13,84.39z"/>
							</g>
							<g class="st16">
								<path class="st4" d="M-2.032,78.225c7.928,5.424,15.927,8.238,25.505,8.971l3.988-52.078L-2.032,78.225z"/>
								<path class="st5" d="M23.473,87.196c9.578,0.733,17.912-0.83,26.573-4.983L27.461,35.118L23.473,87.196z"/>
								<path class="st6" d="M50.047,82.213c8.661-4.154,15.098-9.674,20.522-17.602L27.461,35.118L50.047,82.213z"/>
								<path class="st7" d="M70.568,64.611c5.424-7.928,8.238-15.927,8.971-25.505l-52.078-3.988L70.568,64.611z"/>
								<path class="st8" d="M79.539,39.106c0.733-9.578-0.83-17.912-4.983-26.573L27.461,35.118L79.539,39.106z"/>
								<path class="st9" d="M74.556,12.532C70.402,3.871,64.881-2.565,56.953-7.989L27.461,35.118L74.556,12.532z"/>
								<path class="st10" d="M56.953-7.989c-7.928-5.424-15.927-8.238-25.505-8.971l-3.988,52.078L56.953-7.989z"/>
								<path class="st11" d="M31.449-16.96c-9.578-0.733-17.912,0.83-26.573,4.983l22.586,47.095L31.449-16.96z"/>
								<path class="st12" d="M4.875-11.977C-3.786-7.823-10.222-2.302-15.646,5.625l43.107,29.493L4.875-11.977z"/>
								<path class="st13" d="M-15.646,5.625c-5.424,7.928-8.238,15.927-8.971,25.505l52.078,3.988L-15.646,5.625z"/>
								<path class="st14" d="M-19.634,57.704l47.095-22.586l-52.078-3.988C-25.351,40.708-23.788,49.042-19.634,57.704z"/>
								<path class="st15" d="M-19.634,57.704c4.154,8.661,9.674,15.098,17.602,20.522l29.493-43.107L-19.634,57.704z"/>
							</g>
						</g>
					</g>
				</g>
				<g class="st16">
					<g>
						<g>
							<g>
								<path class="st4" d="M60.151,75.854c7.492-6.012,12.506-12.85,15.988-21.802L27.461,35.118L60.151,75.854z"/>
								<path class="st5" d="M76.139,54.051c3.482-8.952,4.406-17.382,2.945-26.876l-51.623,7.942L76.139,54.051z"/>
								<path class="st6" d="M79.084,27.176C77.623,17.682,74.209,9.92,68.197,2.428l-40.736,32.69L79.084,27.176z"/>
								<path class="st7" d="M68.197,2.428c-6.012-7.492-12.85-12.506-21.802-15.988L27.461,35.118L68.197,2.428z"/>
								<path class="st8" d="M46.394-13.56c-8.952-3.482-17.382-4.406-26.876-2.945l7.942,51.623L46.394-13.56z"/>
								<path class="st9" d="M19.519-16.505C10.025-15.045,2.263-11.63-5.229-5.618l32.69,40.736L19.519-16.505z"/>
								<path class="st10" d="M-5.229-5.618c-7.492,6.012-12.506,12.85-15.988,21.802l48.678,18.933L-5.229-5.618z"/>
								<path class="st11" d="M-21.217,16.184c-3.482,8.952-4.406,17.382-2.945,26.876l51.623-7.942L-21.217,16.184z"/>
								<path class="st12" d="M27.461,35.118l-51.623,7.942c1.461,9.494,4.875,17.256,10.887,24.748L27.461,35.118z"/>
								<path class="st13" d="M-13.275,67.808c6.012,7.492,12.85,12.506,21.802,15.988l18.933-48.678L-13.275,67.808z"/>
								<path class="st14" d="M8.527,83.796c8.952,3.482,17.382,4.406,26.876,2.945l-7.942-51.623L8.527,83.796z"/>
								<path class="st15" d="M35.403,86.741c9.494-1.461,17.256-4.875,24.748-10.887l-32.69-40.736L35.403,86.741z"/>
							</g>
							<g class="st16">
								<path class="st4" d="M21.771,87.038c9.549,1.046,17.93-0.243,26.722-4.111L27.461,35.118L21.771,87.038z"/>
								<path class="st5" d="M48.494,82.927c8.793-3.868,15.406-9.175,21.086-16.921L27.461,35.118L48.494,82.927z"/>
								<path class="st6" d="M69.58,66.005c5.68-7.746,8.754-15.649,9.801-25.198l-51.92-5.69L69.58,66.005z"/>
								<path class="st7" d="M79.381,40.808c1.046-9.549-0.243-17.93-4.111-26.722L27.461,35.118L79.381,40.808z"/>
								<path class="st8" d="M75.27,14.085C71.401,5.293,66.094-1.321,58.348-7.001L27.461,35.118L75.27,14.085z"/>
								<path class="st9" d="M58.348-7.001c-7.746-5.68-15.649-8.754-25.198-9.801l-5.69,51.92L58.348-7.001z"/>
								<path class="st10" d="M33.15-16.802c-9.549-1.046-17.93,0.243-26.722,4.111l21.033,47.809L33.15-16.802z"/>
								<path class="st11" d="M6.428-12.691C-2.364-8.823-8.978-3.515-14.658,4.231l42.119,30.887L6.428-12.691z"/>
								<path class="st12" d="M-14.658,4.231c-5.68,7.746-8.754,15.649-9.801,25.198l51.92,5.69L-14.658,4.231z"/>
								<path class="st13" d="M-24.459,29.428c-1.046,9.549,0.243,17.93,4.111,26.722l47.809-21.033L-24.459,29.428z"/>
								<path class="st14" d="M-3.426,77.237l30.887-42.119l-47.809,21.033C-16.48,64.943-11.172,71.557-3.426,77.237z"/>
								<path class="st15" d="M-3.426,77.237c7.746,5.68,15.649,8.754,25.198,9.801l5.69-51.92L-3.426,77.237z"/>
							</g>
						</g>
						<g class="st16">
							<g>
								<path class="st4" d="M42.073,85.263c9.222-2.687,16.472-7.086,23.115-14.024L27.461,35.118L42.073,85.263z"/>
								<path class="st5" d="M65.188,71.239C71.831,64.3,75.91,56.866,78.194,47.536L27.461,35.118L65.188,71.239z"/>
								<path class="st6" d="M78.194,47.536c2.284-9.33,2.099-17.808-0.588-27.03L27.461,35.118L78.194,47.536z"/>
								<path class="st7" d="M77.606,20.506C74.918,11.283,70.52,4.034,63.581-2.609L27.461,35.118L77.606,20.506z"/>
								<path class="st8" d="M63.581-2.609c-6.938-6.643-14.372-10.722-23.703-13.006L27.461,35.118L63.581-2.609z"/>
								<path class="st9" d="M39.879-15.615c-9.33-2.284-17.808-2.099-27.03,0.588l14.612,50.145L39.879-15.615z"/>
								<path class="st10" d="M12.849-15.027C3.626-12.34-3.623-7.941-10.266-1.003l37.727,36.121L12.849-15.027z"/>
								<path class="st11" d="M-10.266-1.003C-16.909,5.936-20.988,13.37-23.272,22.7l50.733,12.418L-10.266-1.003z"/>
								<path class="st12" d="M27.461,35.118L-23.272,22.7c-2.284,9.33-2.099,17.808,0.588,27.03L27.461,35.118z"/>
								<path class="st13" d="M-22.684,49.73c2.687,9.222,7.086,16.472,14.024,23.115l36.121-37.727L-22.684,49.73z"/>
								<path class="st14" d="M-8.66,72.845c6.938,6.643,14.372,10.722,23.703,13.006l12.418-50.733L-8.66,72.845z"/>
								<path class="st15" d="M15.043,85.851c9.33,2.284,17.808,2.099,27.03-0.588L27.461,35.118L15.043,85.851z"/>
							</g>
							<g class="st16">
								<path class="st4" d="M2.336,80.908c8.421,4.621,16.658,6.637,26.261,6.428l-1.136-52.218L2.336,80.908z"/>
								<path class="st5" d="M28.597,87.336c9.604-0.209,17.745-2.581,25.957-7.564L27.461,35.118L28.597,87.336z"/>
								<path class="st6" d="M54.554,79.772c8.212-4.983,14.077-11.108,18.697-19.529l-45.79-25.125L54.554,79.772z"/>
								<path class="st7" d="M73.251,60.243c4.621-8.421,6.637-16.658,6.428-26.261l-52.218,1.136L73.251,60.243z"/>
								<path class="st8" d="M79.679,33.982c-0.209-9.604-2.581-17.745-7.564-25.957L27.461,35.118L79.679,33.982z"/>
								<path class="st9" d="M72.115,8.025C67.133-0.187,61.008-6.052,52.586-10.672l-25.125,45.79L72.115,8.025z"/>
								<path class="st10" d="M52.586-10.672c-8.421-4.621-16.658-6.637-26.261-6.428l1.136,52.218L52.586-10.672z"/>
								<path class="st11" d="M26.325-17.1C16.721-16.891,8.58-14.519,0.368-9.536l27.093,44.654L26.325-17.1z"/>
								<path class="st12" d="M0.368-9.536C-7.844-4.554-13.709,1.571-18.329,9.993l45.79,25.125L0.368-9.536z"/>
								<path class="st13" d="M-18.329,9.993c-4.621,8.421-6.637,16.658-6.428,26.261l52.218-1.136L-18.329,9.993z"/>
								<path class="st14" d="M-17.193,62.211l44.654-27.093l-52.218,1.136C-24.548,45.858-22.176,53.999-17.193,62.211z"/>
								<path class="st15" d="M-17.193,62.211c4.983,8.212,11.108,14.077,19.529,18.697l25.125-45.79L-17.193,62.211z"/>
							</g>
						</g>
					</g>
					<g class="st16">
						<g>
							<g>
								<path class="st4" d="M51.575,81.449c8.521-4.435,14.773-10.163,19.935-18.264L27.461,35.118L51.575,81.449z"/>
								<path class="st5" d="M71.51,63.184c5.162-8.101,7.712-16.188,8.132-25.785l-52.181-2.282L71.51,63.184z"/>
								<path class="st6" d="M79.642,37.4c0.42-9.597-1.415-17.875-5.85-26.396L27.461,35.118L79.642,37.4z"/>
								<path class="st7" d="M73.792,11.004C69.357,2.483,63.628-3.769,55.527-8.931L27.461,35.118L73.792,11.004z"/>
								<path class="st8" d="M55.527-8.931c-8.101-5.162-16.188-7.712-25.785-8.132l-2.282,52.181L55.527-8.931z"/>
								<path class="st9" d="M29.743-17.063c-9.597-0.42-17.875,1.415-26.396,5.85l24.114,46.331L29.743-17.063z"/>
								<path class="st10" d="M3.347-11.213C-5.174-6.778-11.426-1.049-16.588,7.052l44.049,28.066L3.347-11.213z"/>
								<path class="st11" d="M-16.588,7.052C-21.75,15.153-24.3,23.24-24.72,32.836l52.181,2.282L-16.588,7.052z"/>
								<path class="st12" d="M27.461,35.118l-52.181-2.282c-0.42,9.597,1.415,17.875,5.85,26.396L27.461,35.118z"/>
								<path class="st13" d="M-18.87,59.232c4.435,8.521,10.163,14.773,18.264,19.935l28.066-44.049L-18.87,59.232z"/>
								<path class="st14" d="M-0.605,79.167c8.101,5.162,16.188,7.712,25.785,8.132l2.282-52.181L-0.605,79.167z"/>
								<path class="st15" d="M25.179,87.299c9.597,0.42,17.875-1.415,26.396-5.85L27.461,35.118L25.179,87.299z"/>
							</g>
							<g class="st16">
								<path class="st4" d="M11.752,84.93c9.161,2.889,17.633,3.26,27.011,1.181L27.461,35.118L11.752,84.93z"/>
								<path class="st5" d="M38.762,86.111c9.378-2.078,16.9-5.993,23.983-12.483L27.461,35.118L38.762,86.111z"/>
								<path class="st6" d="M62.745,73.629c7.083-6.489,11.639-13.64,14.528-22.801L27.461,35.118L62.745,73.629z"/>
								<path class="st7" d="M77.273,50.827c2.889-9.161,3.26-17.633,1.181-27.011L27.461,35.118L77.273,50.827z"/>
								<path class="st8" d="M78.454,23.817c-2.078-9.378-5.993-16.9-12.483-23.983L27.461,35.118L78.454,23.817z"/>
								<path class="st9" d="M65.972-0.166c-6.489-7.083-13.64-11.639-22.801-14.528L27.461,35.118L65.972-0.166z"/>
								<path class="st10" d="M43.17-14.694c-9.161-2.889-17.633-3.26-27.011-1.181l11.301,50.993L43.17-14.694z"/>
								<path class="st11" d="M16.159-15.875C6.781-13.797-0.741-9.882-7.823-3.393l35.284,38.511L16.159-15.875z"/>
								<path class="st12" d="M-7.823-3.393c-7.083,6.489-11.639,13.64-14.528,22.801l49.812,15.709L-7.823-3.393z"/>
								<path class="st13" d="M-22.351,19.409c-2.889,9.161-3.26,17.633-1.181,27.011l50.993-11.301L-22.351,19.409z"/>
								<path class="st14" d="M-11.05,70.402l38.511-35.284l-50.993,11.301C-21.454,55.798-17.539,63.319-11.05,70.402z"/>
								<path class="st15" d="M-11.05,70.402c6.489,7.083,13.64,11.639,22.801,14.528l15.709-49.812L-11.05,70.402z"/>
							</g>
						</g>
						<g class="st16">
							<g>
								<path class="st4" d="M32.01,87.15c9.569-0.837,17.538-3.736,25.407-9.245L27.461,35.118L32.01,87.15z"/>
								<path class="st5" d="M57.416,77.905c7.869-5.509,13.32-12.005,17.38-20.71L27.461,35.118L57.416,77.905z"/>
								<path class="st6" d="M74.796,57.195c4.06-8.706,5.533-17.056,4.697-26.626l-52.032,4.549L74.796,57.195z"/>
								<path class="st7" d="M79.493,30.569C78.656,21,75.757,13.031,70.248,5.163L27.461,35.118L79.493,30.569z"/>
								<path class="st8" d="M70.248,5.163c-5.509-7.869-12.005-13.32-20.71-17.38L27.461,35.118L70.248,5.163z"/>
								<path class="st9" d="M49.538-12.218c-8.706-4.06-17.056-5.533-26.626-4.697l4.549,52.032L49.538-12.218z"/>
								<path class="st10" d="M22.912-16.914c-9.569,0.837-17.538,3.736-25.407,9.245l29.955,42.787L22.912-16.914z"/>
								<path class="st11" d="M-2.495-7.669c-7.869,5.509-13.32,12.005-17.38,20.71l47.336,22.077L-2.495-7.669z"/>
								<path class="st12" d="M27.461,35.118l-47.336-22.077c-4.06,8.706-5.533,17.056-4.697,26.625L27.461,35.118z"/>
								<path class="st13" d="M-24.571,39.667c0.837,9.569,3.736,17.538,9.245,25.407l42.787-29.955L-24.571,39.667z"/>
								<path class="st14" d="M-15.326,65.073c5.509,7.869,12.005,13.32,20.71,17.38l22.077-47.336L-15.326,65.073z"/>
								<path class="st15" d="M5.384,82.454c8.706,4.06,17.056,5.533,26.626,4.697l-4.549-52.032L5.384,82.454z"/>
							</g>
							<g class="st16">
								<path class="st4" d="M-6.115,75.127c7.358,6.175,15.043,9.759,24.503,11.428l9.073-51.437L-6.115,75.127z"/>
								<path class="st5" d="M18.388,86.555c9.46,1.669,17.907,0.93,26.934-2.355L27.461,35.118L18.388,86.555z"/>
								<path class="st6" d="M45.322,84.2c9.027-3.285,15.973-8.148,22.148-15.506L27.461,35.118L45.322,84.2z"/>
								<path class="st7" d="M67.47,68.694c6.175-7.358,9.759-15.043,11.428-24.503l-51.437-9.073L67.47,68.694z"/>
								<path class="st8" d="M78.897,44.191c1.669-9.46,0.93-17.907-2.355-26.934L27.461,35.118L78.897,44.191z"/>
								<path class="st9" d="M76.543,17.257C73.258,8.231,68.395,1.284,61.037-4.891L27.461,35.118L76.543,17.257z"/>
								<path class="st10" d="M61.037-4.891c-7.358-6.175-15.043-9.759-24.503-11.428l-9.073,51.437L61.037-4.891z"/>
								<path class="st11" d="M36.534-16.319c-9.46-1.669-17.907-0.93-26.934,2.355l17.861,49.082L36.534-16.319z"/>
								<path class="st12" d="M9.6-13.964C0.573-10.679-6.373-5.816-12.548,1.542l40.009,33.576L9.6-13.964z"/>
								<path class="st13" d="M-12.548,1.542c-6.175,7.358-9.759,15.043-11.428,24.503l51.437,9.073L-12.548,1.542z"/>
								<path class="st14" d="M-21.621,52.979l49.082-17.861l-51.437-9.073C-25.644,35.505-24.906,43.952-21.621,52.979z"/>
								<path class="st15" d="M-21.621,52.979c3.285,9.027,8.148,15.973,15.506,22.148l33.576-40.009L-21.621,52.979z"/>
							</g>
						</g>
					</g>
				</g>
			</g>
		</g>
		<g class="st16">
			<g>
				<g>
					<g>
						<g>
							<g>
								<path class="st4" d="M64.891,71.546c6.7-6.884,10.839-14.284,13.199-23.596l-50.63-12.832L64.891,71.546z"/>
								<path class="st5" d="M78.091,47.95c2.36-9.311,2.245-17.79-0.367-27.034L27.461,35.118L78.091,47.95z"/>
								<path class="st6" d="M77.724,20.916c-2.612-9.244-6.951-16.529-13.835-23.229l-36.428,37.43L77.724,20.916z"/>
								<path class="st7" d="M63.889-2.312c-6.884-6.699-14.284-10.839-23.596-13.199l-12.832,50.63L63.889-2.312z"/>
								<path class="st8" d="M40.293-15.512c-9.311-2.36-17.79-2.245-27.034,0.367l14.202,50.263L40.293-15.512z"/>
								<path class="st9" d="M13.259-15.145C4.015-12.533-3.27-8.194-9.969-1.31l37.43,36.428L13.259-15.145z"/>
								<path class="st10" d="M-9.969-1.31c-6.7,6.884-10.839,14.284-13.199,23.596l50.63,12.832L-9.969-1.31z"/>
								<path class="st11" d="M-23.169,22.286c-2.36,9.311-2.245,17.79,0.367,27.034l50.263-14.202L-23.169,22.286z"/>
								<path class="st12" d="M27.461,35.118L-22.802,49.32c2.612,9.244,6.951,16.529,13.835,23.229L27.461,35.118z"/>
								<path class="st13" d="M-8.967,72.548c6.884,6.699,14.284,10.839,23.596,13.199l12.832-50.63L-8.967,72.548z"/>
								<path class="st14" d="M14.629,85.748c9.311,2.36,17.79,2.245,27.034-0.367L27.461,35.118L14.629,85.748z"/>
								<path class="st15" d="M41.663,85.381c9.244-2.612,16.529-6.951,23.229-13.835l-37.43-36.428L41.663,85.381z"/>
							</g>
							<g class="st16">
								<path class="st4" d="M28.17,87.344c9.605-0.13,17.765-2.436,26.018-7.351L27.461,35.118L28.17,87.344z"/>
								<path class="st5" d="M54.188,79.992C62.441,75.077,68.355,69,73.044,60.617L27.461,35.118L54.188,79.992z"/>
								<path class="st6" d="M73.044,60.617c4.69-8.383,6.773-16.603,6.643-26.208l-52.226,0.709L73.044,60.617z"/>
								<path class="st7" d="M79.687,34.409c-0.13-9.605-2.436-17.765-7.351-26.018L27.461,35.118L79.687,34.409z"/>
								<path class="st8" d="M72.335,8.391C67.42,0.138,61.343-5.776,52.96-10.465L27.461,35.118L72.335,8.391z"/>
								<path class="st9" d="M52.96-10.465c-8.383-4.69-16.603-6.773-26.208-6.643l0.709,52.226L52.96-10.465z"/>
								<path class="st10" d="M26.752-17.108c-9.605,0.13-17.765,2.436-26.018,7.351l26.727,44.874L26.752-17.108z"/>
								<path class="st11" d="M0.734-9.756C-7.519-4.841-13.433,1.236-18.122,9.619l45.583,25.499L0.734-9.756z"/>
								<path class="st12" d="M-18.122,9.619c-4.69,8.383-6.773,16.603-6.643,26.208l52.226-0.709L-18.122,9.619z"/>
								<path class="st13" d="M-24.765,35.827c0.13,9.605,2.436,17.765,7.351,26.018l44.874-26.727L-24.765,35.827z"/>
								<path class="st14" d="M1.962,80.701l25.499-45.583l-44.874,26.727C-12.498,70.098-6.421,76.012,1.962,80.701z"/>
								<path class="st15" d="M1.962,80.701c8.383,4.69,16.603,6.773,26.208,6.643l-0.709-52.226L1.962,80.701z"/>
							</g>
						</g>
						<g class="st16">
							<g>
								<path class="st4" d="M48.102,83.097c8.824-3.796,15.481-9.049,21.224-16.748L27.461,35.118L48.102,83.097z"/>
								<path class="st5" d="M69.326,66.349c5.744-7.699,8.882-15.577,10.007-25.117l-51.872-6.114L69.326,66.349z"/>
								<path class="st6" d="M79.332,41.232c1.124-9.54-0.096-17.931-3.892-26.755L27.461,35.118L79.332,41.232z"/>
								<path class="st7" d="M75.44,14.477C71.644,5.653,66.391-1.003,58.692-6.747L27.461,35.118L75.44,14.477z"/>
								<path class="st8" d="M58.692-6.747c-7.699-5.744-15.577-8.882-25.117-10.007l-6.114,51.872L58.692-6.747z"/>
								<path class="st9" d="M33.575-16.754c-9.54-1.124-17.931,0.096-26.755,3.892l20.641,47.979L33.575-16.754z"/>
								<path class="st10" d="M6.82-12.861C-2.004-9.065-8.66-3.812-14.404,3.887l41.865,31.231L6.82-12.861z"/>
								<path class="st11" d="M-14.404,3.887c-5.744,7.699-8.882,15.577-10.007,25.117l51.871,6.114L-14.404,3.887z"/>
								<path class="st12" d="M27.461,35.118l-51.871-6.114c-1.124,9.54,0.096,17.931,3.892,26.755L27.461,35.118z"/>
								<path class="st13" d="M-20.518,55.759c3.796,8.824,9.049,15.481,16.748,21.224l31.231-41.865L-20.518,55.759z"/>
								<path class="st14" d="M-3.77,76.983c7.699,5.744,15.577,8.882,25.117,10.007l6.114-51.872L-3.77,76.983z"/>
								<path class="st15" d="M21.347,86.99c9.54,1.124,17.931-0.096,26.755-3.892L27.461,35.118L21.347,86.99z"/>
							</g>
							<g class="st16">
								<path class="st4" d="M8.13,83.64c8.924,3.555,17.345,4.548,26.851,3.165l-7.52-51.686L8.13,83.64z"/>
								<path class="st5" d="M34.98,86.804c9.506-1.383,17.295-4.734,24.836-10.684L27.461,35.118L34.98,86.804z"/>
								<path class="st6" d="M59.816,76.12c7.541-5.951,12.611-12.747,16.166-21.671L27.461,35.118L59.816,76.12z"/>
								<path class="st7" d="M75.982,54.449c3.555-8.924,4.548-17.345,3.165-26.851l-51.686,7.52L75.982,54.449z"/>
								<path class="st8" d="M79.147,27.598c-1.383-9.506-4.734-17.295-10.684-24.836L27.461,35.118L79.147,27.598z"/>
								<path class="st9" d="M68.463,2.763c-5.95-7.541-12.747-12.611-21.671-16.166L27.461,35.118L68.463,2.763z"/>
								<path class="st10" d="M46.792-13.404c-8.924-3.555-17.345-4.548-26.851-3.165l7.52,51.686L46.792-13.404z"/>
								<path class="st11" d="M19.941-16.568C10.436-15.186,2.646-11.835-4.894-5.884l32.355,41.002L19.941-16.568z"/>
								<path class="st12" d="M-4.894-5.884c-7.541,5.951-12.611,12.747-16.166,21.671l48.522,19.331L-4.894-5.884z"/>
								<path class="st13" d="M-21.061,15.787c-3.555,8.924-4.548,17.345-3.165,26.851l51.686-7.52L-21.061,15.787z"/>
								<path class="st14" d="M-13.541,67.473l41.002-32.355l-51.686,7.52C-22.843,52.143-19.492,59.933-13.541,67.473z"/>
								<path class="st15" d="M-13.541,67.473C-7.591,75.014-0.794,80.084,8.13,83.64l19.331-48.522L-13.541,67.473z"/>
							</g>
						</g>
					</g>
					<g class="st16">
						<g>
							<g>
								<path class="st4" d="M57.065,78.148c7.914-5.445,13.418-11.895,17.549-20.567L27.461,35.118L57.065,78.148z"/>
								<path class="st5" d="M74.614,57.581c4.131-8.672,5.673-17.01,4.914-26.586l-52.068,4.123L74.614,57.581z"/>
								<path class="st6" d="M79.529,30.995c-0.758-9.576-3.593-17.568-9.037-25.481l-43.03,29.604L79.529,30.995z"/>
								<path class="st7" d="M70.491,5.514C65.047-2.4,58.596-7.904,49.924-12.035L27.461,35.118L70.491,5.514z"/>
								<path class="st8" d="M49.924-12.035c-8.672-4.131-17.01-5.673-26.586-4.914l4.123,52.068L49.924-12.035z"/>
								<path class="st9" d="M23.338-16.95C13.762-16.191,5.77-13.357-2.144-7.912l29.604,43.03L23.338-16.95z"/>
								<path class="st10" d="M-2.144-7.912c-7.914,5.445-13.418,11.895-17.549,20.567l47.153,22.463L-2.144-7.912z"/>
								<path class="st11" d="M-19.692,12.655c-4.131,8.672-5.673,17.01-4.914,26.586l52.068-4.123L-19.692,12.655z"/>
								<path class="st12" d="M27.461,35.118l-52.068,4.123c0.758,9.576,3.593,17.568,9.037,25.481L27.461,35.118z"/>
								<path class="st13" d="M-15.569,64.722c5.445,7.914,11.895,13.418,20.567,17.549l22.463-47.153L-15.569,64.722z"/>
								<path class="st14" d="M4.998,82.271c8.672,4.131,17.01,5.673,26.586,4.914l-4.123-52.068L4.998,82.271z"/>
								<path class="st15" d="M31.584,87.186c9.576-0.758,17.568-3.593,25.481-9.037l-29.604-43.03L31.584,87.186z"/>
							</g>
							<g class="st16">
								<path class="st4" d="M17.967,86.479c9.446,1.746,17.899,1.077,26.952-2.134L27.461,35.118L17.967,86.479z"/>
								<path class="st5" d="M44.92,84.344c9.053-3.211,16.039-8.017,22.274-15.324L27.461,35.118L44.92,84.344z"/>
								<path class="st6" d="M67.194,69.02c6.235-7.307,9.882-14.963,11.628-24.408l-51.361-9.494L67.194,69.02z"/>
								<path class="st7" d="M78.821,44.612c1.746-9.446,1.077-17.899-2.134-26.952L27.461,35.118L78.821,44.612z"/>
								<path class="st8" d="M76.687,17.659C73.476,8.606,68.67,1.62,61.363-4.615L27.461,35.118L76.687,17.659z"/>
								<path class="st9" d="M61.363-4.615C54.056-10.85,46.4-14.497,36.955-16.243l-9.494,51.361L61.363-4.615z"/>
								<path class="st10" d="M36.955-16.243c-9.446-1.746-17.899-1.077-26.952,2.134l17.459,49.226L36.955-16.243z"/>
								<path class="st11" d="M10.002-14.108C0.949-10.898-6.037-6.091-12.272,1.216l39.733,33.902L10.002-14.108z"/>
								<path class="st12" d="M-12.272,1.216c-6.235,7.307-9.882,14.963-11.628,24.408l51.361,9.494L-12.272,1.216z"/>
								<path class="st13" d="M-23.9,25.624c-1.746,9.446-1.077,17.899,2.134,26.952l49.226-17.459L-23.9,25.624z"/>
								<path class="st14" d="M-6.441,74.851l33.902-39.733l-49.226,17.459C-18.555,61.63-13.748,68.616-6.441,74.851z"/>
								<path class="st15" d="M-6.441,74.851c7.307,6.235,14.963,9.882,24.408,11.628l9.494-51.361L-6.441,74.851z"/>
							</g>
						</g>
						<g class="st16">
							<g>
								<path class="st4" d="M38.345,86.202c9.395-2.002,16.948-5.855,24.084-12.286L27.461,35.118L38.345,86.202z"/>
								<path class="st5" d="M62.429,73.916c7.135-6.431,11.75-13.545,14.714-22.682L27.461,35.118L62.429,73.916z"/>
								<path class="st6" d="M77.143,51.234c2.964-9.137,3.404-17.605,1.402-27L27.461,35.118L77.143,51.234z"/>
								<path class="st7" d="M78.545,24.234C76.543,14.839,72.69,7.286,66.259,0.15L27.461,35.118L78.545,24.234z"/>
								<path class="st8" d="M66.259,0.15C59.828-6.985,52.714-11.6,43.577-14.564L27.461,35.118L66.259,0.15z"/>
								<path class="st9" d="M43.577-14.564c-9.137-2.964-17.605-3.404-27-1.402l10.884,51.084L43.577-14.564z"/>
								<path class="st10" d="M16.577-15.966C7.182-13.964-0.371-10.111-7.507-3.68l34.968,38.798L16.577-15.966z"/>
								<path class="st11" d="M-7.507-3.68c-7.135,6.431-11.75,13.545-14.714,22.682l49.682,16.116L-7.507-3.68z"/>
								<path class="st12" d="M27.461,35.118l-49.682-16.116c-2.964,9.137-3.404,17.605-1.402,27L27.461,35.118z"/>
								<path class="st13" d="M-23.623,46.002c2.002,9.395,5.855,16.948,12.286,24.084l38.798-34.968L-23.623,46.002z"/>
								<path class="st14" d="M-11.337,70.086c6.431,7.135,13.545,11.75,22.682,14.714l16.116-49.682L-11.337,70.086z"/>
								<path class="st15" d="M11.345,84.8c9.137,2.964,17.605,3.404,27,1.402L27.461,35.118L11.345,84.8z"/>
							</g>
							<g class="st16">
								<path class="st4" d="M-0.965,78.936c8.059,5.228,16.124,7.844,25.717,8.342l2.708-52.16L-0.965,78.936z"/>
								<path class="st5" d="M24.752,87.278c9.593,0.498,17.886-1.269,26.443-5.634L27.461,35.118L24.752,87.278z"/>
								<path class="st6" d="M51.195,81.644c8.557-4.365,14.856-10.042,20.083-18.101L27.461,35.118L51.195,81.644z"/>
								<path class="st7" d="M71.279,63.544c5.228-8.059,7.844-16.124,8.342-25.717l-52.16-2.708L71.279,63.544z"/>
								<path class="st8" d="M79.621,37.826c0.498-9.593-1.269-17.886-5.634-26.443L27.461,35.118L79.621,37.826z"/>
								<path class="st9" d="M73.987,11.383C69.622,2.827,63.945-3.472,55.887-8.7L27.461,35.118L73.987,11.383z"/>
								<path class="st10" d="M55.887-8.7c-8.059-5.228-16.124-7.844-25.717-8.342l-2.708,52.16L55.887-8.7z"/>
								<path class="st11" d="M30.169-17.042c-9.593-0.498-17.886,1.269-26.443,5.634l23.735,46.526L30.169-17.042z"/>
								<path class="st12" d="M3.726-11.408C-4.83-7.043-11.129-1.366-16.357,6.692l43.818,28.426L3.726-11.408z"/>
								<path class="st13" d="M-16.357,6.692c-5.228,8.059-7.844,16.124-8.342,25.717l52.16,2.708L-16.357,6.692z"/>
								<path class="st14" d="M-19.065,58.853l46.526-23.735l-52.16-2.708C-25.198,42.002-23.431,50.296-19.065,58.853z"/>
								<path class="st15" d="M-19.065,58.853C-14.7,67.409-9.023,73.708-0.965,78.936l28.426-43.818L-19.065,58.853z"/>
							</g>
						</g>
					</g>
				</g>
				<g class="st16">
					<g>
						<g>
							<g>
								<path class="st4" d="M61.141,75.039c7.342-6.194,12.187-13.153,15.448-22.188L27.461,35.118L61.141,75.039z"/>
								<path class="st5" d="M76.589,52.851c3.261-9.035,3.978-17.484,2.285-26.94l-51.413,9.207L76.589,52.851z"/>
								<path class="st6" d="M78.874,25.911C77.18,16.456,73.576,8.78,67.382,1.438l-39.921,33.68L78.874,25.911z"/>
								<path class="st7" d="M67.382,1.438C61.188-5.904,54.229-10.749,45.194-14.01L27.461,35.118L67.382,1.438z"/>
								<path class="st8" d="M45.194-14.01c-9.035-3.261-17.484-3.978-26.94-2.285l9.207,51.413L45.194-14.01z"/>
								<path class="st9" d="M18.254-16.295C8.799-14.602,1.123-10.997-6.219-4.803l33.68,39.921L18.254-16.295z"/>
								<path class="st10" d="M-6.219-4.803C-13.561,1.391-18.406,8.35-21.667,17.385l49.128,17.733L-6.219-4.803z"/>
								<path class="st11" d="M-21.667,17.385c-3.261,9.035-3.978,17.484-2.285,26.94l51.413-9.207L-21.667,17.385z"/>
								<path class="st12" d="M27.461,35.118l-51.413,9.207c1.693,9.455,5.297,17.131,11.491,24.473L27.461,35.118z"/>
								<path class="st13" d="M-12.461,68.798C-6.266,76.14,0.693,80.985,9.728,84.246l17.733-49.128L-12.461,68.798z"/>
								<path class="st14" d="M9.728,84.246c9.035,3.261,17.484,3.978,26.94,2.285l-9.207-51.413L9.728,84.246z"/>
								<path class="st15" d="M36.668,86.531c9.455-1.693,17.131-5.297,24.473-11.491l-33.68-39.921L36.668,86.531z"/>
							</g>
							<g class="st16">
								<path class="st4" d="M23.047,87.162c9.571,0.812,17.918-0.683,26.613-4.766l-22.2-47.278L23.047,87.162z"/>
								<path class="st5" d="M49.66,82.396c8.695-4.083,15.176-9.551,20.665-17.434L27.461,35.118L49.66,82.396z"/>
								<path class="st6" d="M70.325,64.962c5.489-7.883,8.368-15.859,9.179-25.431l-52.044-4.414L70.325,64.962z"/>
								<path class="st7" d="M79.505,39.532c0.812-9.571-0.683-17.918-4.766-26.613l-47.278,22.2L79.505,39.532z"/>
								<path class="st8" d="M74.739,12.918C70.656,4.223,65.188-2.258,57.305-7.746L27.461,35.118L74.739,12.918z"/>
								<path class="st9" d="M57.305-7.746c-7.883-5.489-15.859-8.368-25.431-9.179l-4.414,52.044L57.305-7.746z"/>
								<path class="st10" d="M31.875-16.926c-9.571-0.812-17.918,0.683-26.613,4.766l22.2,47.278L31.875-16.926z"/>
								<path class="st11" d="M5.261-12.16C-3.434-8.077-9.915-2.609-15.403,5.274l42.864,29.844L5.261-12.16z"/>
								<path class="st12" d="M-15.403,5.274c-5.489,7.883-8.368,15.859-9.179,25.431l52.044,4.414L-15.403,5.274z"/>
								<path class="st13" d="M-24.583,30.704c-0.812,9.571,0.683,17.918,4.766,26.613l47.278-22.2L-24.583,30.704z"/>
								<path class="st14" d="M-2.383,77.982l29.844-42.864l-47.278,22.2C-15.734,66.012-10.267,72.494-2.383,77.982z"/>
								<path class="st15" d="M-2.383,77.982c7.883,5.489,15.859,8.368,25.431,9.179l4.414-52.044L-2.383,77.982z"/>
							</g>
						</g>
						<g class="st16">
							<g>
								<path class="st4" d="M43.3,84.889c9.153-2.913,16.293-7.488,22.764-14.587L27.461,35.118L43.3,84.889z"/>
								<path class="st5" d="M66.063,70.302c6.471-7.099,10.366-14.631,12.42-24.015L27.461,35.118L66.063,70.302z"/>
								<path class="st6" d="M78.483,46.287c2.054-9.384,1.662-17.854-1.251-27.008L27.461,35.118L78.483,46.287z"/>
								<path class="st7" d="M77.232,19.279c-2.913-9.153-7.488-16.293-14.587-22.764L27.461,35.118L77.232,19.279z"/>
								<path class="st8" d="M62.645-3.484C55.545-9.955,48.013-13.85,38.63-15.904L27.461,35.118L62.645-3.484z"/>
								<path class="st9" d="M38.63-15.904c-9.384-2.054-17.854-1.662-27.008,1.251l15.839,49.771L38.63-15.904z"/>
								<path class="st10" d="M11.622-14.653C2.469-11.74-4.671-7.165-11.141-0.066l38.602,35.184L11.622-14.653z"/>
								<path class="st11" d="M-11.141-0.066c-6.471,7.099-10.366,14.631-12.42,24.015l51.022,11.169L-11.141-0.066z"/>
								<path class="st12" d="M27.461,35.118l-51.022-11.169c-2.054,9.384-1.662,17.854,1.251,27.008L27.461,35.118z"/>
								<path class="st13" d="M-22.31,50.957c2.913,9.153,7.488,16.293,14.587,22.764l35.184-38.602L-22.31,50.957z"/>
								<path class="st14" d="M-7.723,73.72c7.099,6.471,14.631,10.366,24.015,12.42l11.169-51.022L-7.723,73.72z"/>
								<path class="st15" d="M16.292,86.14c9.384,2.054,17.854,1.662,27.008-1.251L27.461,35.118L16.292,86.14z"/>
							</g>
							<g class="st16">
								<path class="st4" d="M3.467,81.511c8.532,4.413,16.816,6.226,26.411,5.781l-2.417-52.175L3.467,81.511z"/>
								<path class="st5" d="M29.878,87.293c9.595-0.445,17.676-3.016,25.763-8.199L27.461,35.118L29.878,87.293z"/>
								<path class="st6" d="M55.642,79.094c8.088-5.183,13.8-11.45,18.212-19.982L27.461,35.118L55.642,79.094z"/>
								<path class="st7" d="M73.854,59.112c4.413-8.532,6.226-16.816,5.781-26.411l-52.175,2.417L73.854,59.112z"/>
								<path class="st8" d="M79.636,32.701c-0.445-9.595-3.016-17.676-8.199-25.763L27.461,35.118L79.636,32.701z"/>
								<path class="st9" d="M71.437,6.937c-5.183-8.088-11.45-13.8-19.982-18.212L27.461,35.118L71.437,6.937z"/>
								<path class="st10" d="M51.455-11.275c-8.532-4.413-16.816-6.226-26.411-5.781l2.417,52.175L51.455-11.275z"/>
								<path class="st11" d="M25.044-17.057C15.448-16.612,7.368-14.041-0.72-8.858l28.181,43.976L25.044-17.057z"/>
								<path class="st12" d="M-0.72-8.858c-8.088,5.183-13.8,11.45-18.212,19.982l46.393,23.994L-0.72-8.858z"/>
								<path class="st13" d="M-18.932,11.124c-4.413,8.532-6.226,16.816-5.781,26.411l52.175-2.417L-18.932,11.124z"/>
								<path class="st14" d="M-16.515,63.299l43.976-28.181l-52.175,2.417C-24.269,47.131-21.698,55.211-16.515,63.299z"/>
								<path class="st15" d="M-16.515,63.299c5.183,8.088,11.45,13.8,19.982,18.212l23.994-46.393L-16.515,63.299z"/>
							</g>
						</g>
					</g>
					<g class="st16">
						<g>
							<g>
								<path class="st4" d="M52.705,80.843c8.409-4.643,14.519-10.523,19.48-18.748L27.461,35.118L52.705,80.843z"/>
								<path class="st5" d="M72.185,62.095c4.961-8.225,7.312-16.372,7.496-25.976l-52.221-1L72.185,62.095z"/>
								<path class="st6" d="M79.682,36.118c0.184-9.604-1.853-17.835-6.496-26.245L27.461,35.118L79.682,36.118z"/>
								<path class="st7" d="M73.186,9.874C68.543,1.465,62.663-4.645,54.438-9.607L27.461,35.118L73.186,9.874z"/>
								<path class="st8" d="M54.438-9.607c-8.225-4.961-16.372-7.312-25.976-7.496l-1,52.221L54.438-9.607z"/>
								<path class="st9" d="M28.461-17.103c-9.604-0.184-17.835,1.853-26.245,6.496l25.244,45.725L28.461-17.103z"/>
								<path class="st10" d="M2.217-10.607C-6.193-5.964-12.302-0.084-17.264,8.141l44.725,26.977L2.217-10.607z"/>
								<path class="st11" d="M-17.264,8.141c-4.961,8.225-7.312,16.372-7.496,25.976l52.221,1L-17.264,8.141z"/>
								<path class="st12" d="M27.461,35.118l-52.221-1c-0.184,9.604,1.853,17.835,6.496,26.245L27.461,35.118z"/>
								<path class="st13" d="M-18.264,60.362c4.643,8.409,10.523,14.519,18.748,19.48l26.977-44.725L-18.264,60.362z"/>
								<path class="st14" d="M0.484,79.843c8.225,4.961,16.372,7.312,25.976,7.496l1-52.221L0.484,79.843z"/>
								<path class="st15" d="M26.461,87.339c9.604,0.184,17.835-1.853,26.245-6.496L27.461,35.118L26.461,87.339z"/>
							</g>
							<g class="st16">
								<path class="st4" d="M12.979,85.301c9.229,2.663,17.707,2.826,27.032,0.518l-12.55-50.701L12.979,85.301z"/>
								<path class="st5" d="M40.01,85.819c9.324-2.308,16.748-6.406,23.669-13.067L27.461,35.118L40.01,85.819z"/>
								<path class="st6" d="M63.679,72.751C70.601,66.09,74.98,58.829,77.644,49.6L27.461,35.118L63.679,72.751z"/>
								<path class="st7" d="M77.644,49.6c2.663-9.229,2.826-17.707,0.518-27.032L27.461,35.118L77.644,49.6z"/>
								<path class="st8" d="M78.161,22.568C75.853,13.244,71.755,5.821,65.094-1.1L27.461,35.118L78.161,22.568z"/>
								<path class="st9" d="M65.094-1.1c-6.661-6.921-13.922-11.301-23.151-13.964L27.461,35.118L65.094-1.1z"/>
								<path class="st10" d="M41.943-15.065c-9.229-2.663-17.707-2.826-27.032-0.518l12.549,50.701L41.943-15.065z"/>
								<path class="st11" d="M14.911-15.583C5.587-13.275-1.836-9.176-8.758-2.515l36.218,37.633L14.911-15.583z"/>
								<path class="st12" d="M-8.758-2.515c-6.921,6.661-11.301,13.922-13.964,23.151l50.183,14.482L-8.758-2.515z"/>
								<path class="st13" d="M-22.722,20.636c-2.663,9.229-2.826,17.707-0.518,27.032l50.701-12.55L-22.722,20.636z"/>
								<path class="st14" d="M-10.172,71.336l37.633-36.218l-50.701,12.55C-20.932,56.992-16.833,64.415-10.172,71.336z"/>
								<path class="st15" d="M-10.172,71.336c6.661,6.921,13.922,11.301,23.151,13.964l14.482-50.183L-10.172,71.336z"/>
							</g>
						</g>
						<g class="st16">
							<g>
								<path class="st4" d="M33.285,87.023c9.546-1.071,17.441-4.166,25.172-9.866L27.461,35.118L33.285,87.023z"/>
								<path class="st5" d="M58.457,77.157c7.731-5.701,13.021-12.328,16.867-21.13L27.461,35.118L58.457,77.157z"/>
								<path class="st6" d="M75.324,56.026c3.845-8.803,5.113-17.187,4.042-26.733l-51.905,5.824L75.324,56.026z"/>
								<path class="st7" d="M79.366,29.294C78.295,19.748,75.2,11.853,69.5,4.122L27.461,35.118L79.366,29.294z"/>
								<path class="st8" d="M69.5,4.122C63.799-3.61,57.172-8.9,48.369-12.745L27.461,35.118L69.5,4.122z"/>
								<path class="st9" d="M48.369-12.745c-8.803-3.845-17.187-5.113-26.733-4.042l5.824,51.905L48.369-12.745z"/>
								<path class="st10" d="M21.637-16.787c-9.546,1.071-17.441,4.166-25.172,9.866l30.996,42.039L21.637-16.787z"/>
								<path class="st11" d="M-3.536-6.921C-11.267-1.22-16.557,5.407-20.402,14.21l47.863,20.908L-3.536-6.921z"/>
								<path class="st12" d="M27.461,35.118L-20.402,14.21c-3.845,8.803-5.113,17.187-4.042,26.733L27.461,35.118z"/>
								<path class="st13" d="M-24.444,40.942c1.071,9.546,4.166,17.441,9.866,25.172l42.039-30.996L-24.444,40.942z"/>
								<path class="st14" d="M-14.578,66.114c5.701,7.731,12.328,13.021,21.13,16.867l20.908-47.863L-14.578,66.114z"/>
								<path class="st15" d="M6.553,82.981c8.803,3.845,17.187,5.113,26.733,4.042l-5.824-51.905L6.553,82.981z"/>
							</g>
							<g class="st16">
								<path class="st4" d="M-5.123,75.939c7.507,5.993,15.278,9.387,24.776,10.823l7.808-51.644L-5.123,75.939z"/>
								<path class="st5" d="M19.653,86.762c9.498,1.436,17.925,0.49,26.868-3.015l-19.06-48.629L19.653,86.762z"/>
								<path class="st6" d="M46.521,83.747c8.943-3.505,15.768-8.538,21.761-16.045L27.461,35.118L46.521,83.747z"/>
								<path class="st7" d="M68.282,67.702c5.993-7.507,9.387-15.278,10.823-24.776l-51.644-7.808L68.282,67.702z"/>
								<path class="st8" d="M79.105,42.926c1.436-9.498,0.49-17.925-3.015-26.868l-48.629,19.06L79.105,42.926z"/>
								<path class="st9" d="M76.09,16.058C72.584,7.115,67.552,0.29,60.045-5.703L27.461,35.118L76.09,16.058z"/>
								<path class="st10" d="M60.045-5.703c-7.507-5.993-15.278-9.387-24.776-10.823l-7.808,51.644L60.045-5.703z"/>
								<path class="st11" d="M35.269-16.526c-9.498-1.436-17.925-0.49-26.868,3.015l19.06,48.629L35.269-16.526z"/>
								<path class="st12" d="M8.401-13.511C-0.542-10.005-7.367-4.973-13.36,2.534l40.821,32.584L8.401-13.511z"/>
								<path class="st13" d="M-13.36,2.534c-5.993,7.507-9.387,15.278-10.823,24.776l51.644,7.808L-13.36,2.534z"/>
								<path class="st14" d="M-21.168,54.178l48.629-19.06l-51.644-7.808C-25.619,36.808-24.673,45.235-21.168,54.178z"/>
								<path class="st15" d="M-21.168,54.178c3.505,8.943,8.538,15.768,16.045,21.761l32.584-40.821L-21.168,54.178z"/>
							</g>
						</g>
					</g>
				</g>
			</g>
			<g class="st16">
				<g>
					<g>
						<g>
							<g>
								<path class="st4" d="M63.059,73.339c7.029-6.547,11.527-13.735,14.341-22.92L27.461,35.118L63.059,73.339z"/>
								<path class="st5" d="M77.4,50.419c2.814-9.184,3.115-17.659,0.96-27.019L27.461,35.118L77.4,50.419z"/>
								<path class="st6" d="M78.36,23.4c-2.155-9.361-6.131-16.85-12.678-23.88L27.461,35.118L78.36,23.4z"/>
								<path class="st7" d="M65.682-0.48c-6.547-7.029-13.735-11.527-22.92-14.341L27.461,35.118L65.682-0.48z"/>
								<path class="st8" d="M42.762-14.821c-9.184-2.814-17.659-3.115-27.019-0.96l11.718,50.899L42.762-14.821z"/>
								<path class="st9" d="M15.743-15.781C6.382-13.626-1.108-9.65-8.137-3.103l35.598,38.221L15.743-15.781z"/>
								<path class="st10" d="M-8.137-3.103c-7.029,6.547-11.527,13.735-14.341,22.92l49.939,15.301L-8.137-3.103z"/>
								<path class="st11" d="M-22.478,19.817c-2.814,9.184-3.115,17.659-0.96,27.02l50.899-11.718L-22.478,19.817z"/>
								<path class="st12" d="M27.461,35.118l-50.899,11.718c2.155,9.361,6.131,16.85,12.678,23.88L27.461,35.118z"/>
								<path class="st13" d="M-10.76,70.716c6.547,7.029,13.735,11.527,22.92,14.341l15.301-49.939L-10.76,70.716z"/>
								<path class="st14" d="M12.16,85.057c9.184,2.814,17.659,3.115,27.019,0.96L27.461,35.118L12.16,85.057z"/>
								<path class="st15" d="M39.179,86.017c9.361-2.155,16.85-6.131,23.88-12.678L27.461,35.118L39.179,86.017z"/>
							</g>
							<g class="st16">
								<path class="st4" d="M25.606,87.316c9.6,0.341,17.863-1.561,26.347-6.066L27.461,35.118L25.606,87.316z"/>
								<path class="st5" d="M51.954,81.25c8.484-4.504,14.689-10.284,19.785-18.427L27.461,35.118L51.954,81.25z"/>
								<path class="st6" d="M71.738,62.823c5.095-8.143,7.579-16.251,7.92-25.85l-52.198-1.855L71.738,62.823z"/>
								<path class="st7" d="M79.659,36.973c0.341-9.6-1.561-17.863-6.066-26.347L27.461,35.118L79.659,36.973z"/>
								<path class="st8" d="M73.593,10.625C69.088,2.141,63.309-4.064,55.166-9.159L27.461,35.118L73.593,10.625z"/>
								<path class="st9" d="M55.166-9.159c-8.143-5.095-16.251-7.579-25.85-7.92l-1.855,52.198L55.166-9.159z"/>
								<path class="st10" d="M29.316-17.08c-9.6-0.341-17.863,1.561-26.347,6.066l24.493,46.132L29.316-17.08z"/>
								<path class="st11" d="M2.968-11.014C-5.516-6.509-11.721-0.73-16.816,7.413l44.277,27.705L2.968-11.014z"/>
								<path class="st12" d="M-16.816,7.413c-5.095,8.143-7.579,16.251-7.92,25.85l52.198,1.855L-16.816,7.413z"/>
								<path class="st13" d="M-24.737,33.263c-0.341,9.6,1.561,17.863,6.066,26.347l46.132-24.493L-24.737,33.263z"/>
								<path class="st14" d="M-0.244,79.395l27.705-44.277l-46.132,24.493C-14.166,68.095-8.387,74.3-0.244,79.395z"/>
								<path class="st15" d="M-0.244,79.395c8.143,5.095,16.251,7.579,25.85,7.921l1.855-52.198L-0.244,79.395z"/>
							</g>
						</g>
						<g class="st16">
							<g>
								<path class="st4" d="M45.723,84.052c9-3.359,15.906-8.278,22.02-15.687L27.461,35.118L45.723,84.052z"/>
								<path class="st5" d="M67.743,68.365c6.115-7.408,9.636-15.122,11.227-24.595l-51.509-8.652L67.743,68.365z"/>
								<path class="st6" d="M78.97,43.77c1.591-9.473,0.784-17.914-2.575-26.914L27.461,35.118L78.97,43.77z"/>
								<path class="st7" d="M76.395,16.856C73.036,7.857,68.117,0.95,60.708-5.164L27.461,35.118L76.395,16.856z"/>
								<path class="st8" d="M60.708-5.164C53.3-11.279,45.586-14.8,36.113-16.391l-8.652,51.509L60.708-5.164z"/>
								<path class="st9" d="M36.113-16.391c-9.473-1.591-17.914-0.784-26.914,2.575l18.262,48.934L36.113-16.391z"/>
								<path class="st10" d="M9.199-13.816c-9,3.359-15.906,8.278-22.02,15.687l40.282,33.247L9.199-13.816z"/>
								<path class="st11" d="M-12.821,1.871c-6.115,7.408-9.636,15.122-11.227,24.595l51.509,8.652L-12.821,1.871z"/>
								<path class="st12" d="M27.461,35.118l-51.509-8.652c-1.591,9.473-0.784,17.914,2.575,26.914L27.461,35.118z"/>
								<path class="st13" d="M-21.473,53.38c3.359,9,8.278,15.906,15.687,22.02l33.247-40.282L-21.473,53.38z"/>
								<path class="st14" d="M-5.786,75.4c7.408,6.115,15.122,9.636,24.595,11.227l8.652-51.509L-5.786,75.4z"/>
								<path class="st15" d="M18.809,86.627c9.473,1.591,17.914,0.784,26.914-2.575L27.461,35.118L18.809,86.627z"/>
							</g>
							<g class="st16">
								<path class="st4" d="M5.772,82.633c8.738,3.989,17.101,5.393,26.663,4.479l-4.974-51.993L5.772,82.633z"/>
								<path class="st5" d="M32.435,87.111c9.562-0.915,17.507-3.88,25.33-9.453l-30.305-42.54L32.435,87.111z"/>
								<path class="st6" d="M57.765,77.658c7.824-5.573,13.221-12.113,17.21-20.852L27.461,35.118L57.765,77.658z"/>
								<path class="st7" d="M74.976,56.807c3.989-8.738,5.393-17.101,4.479-26.663l-51.993,4.974L74.976,56.807z"/>
								<path class="st8" d="M79.454,30.144c-0.915-9.562-3.88-17.507-9.453-25.33l-42.54,30.305L79.454,30.144z"/>
								<path class="st9" d="M70.001,4.813C64.428-3.01,57.888-8.408,49.15-12.397L27.461,35.118L70.001,4.813z"/>
								<path class="st10" d="M49.15-12.397c-8.738-3.989-17.101-5.393-26.663-4.479l4.974,51.993L49.15-12.397z"/>
								<path class="st11" d="M22.487-16.875c-9.562,0.915-17.507,3.88-25.33,9.453l30.305,42.54L22.487-16.875z"/>
								<path class="st12" d="M-2.844-7.422c-7.824,5.573-13.221,12.113-17.21,20.852l47.515,21.689L-2.844-7.422z"/>
								<path class="st13" d="M-20.054,13.429c-3.989,8.738-5.393,17.101-4.479,26.663l51.993-4.974L-20.054,13.429z"/>
								<path class="st14" d="M-15.079,65.423l42.54-30.305l-51.993,4.974C-23.617,49.654-20.653,57.599-15.079,65.423z"/>
								<path class="st15" d="M-15.079,65.423c5.573,7.824,12.113,13.221,20.852,17.21l21.689-47.515L-15.079,65.423z"/>
							</g>
						</g>
					</g>
					<g class="st16">
						<g>
							<g>
								<path class="st4" d="M54.918,79.549c8.171-5.05,13.985-11.222,18.537-19.681l-45.994-24.75L54.918,79.549z"/>
								<path class="st5" d="M73.455,59.868c4.552-8.459,6.5-16.712,6.213-26.313l-52.207,1.563L73.455,59.868z"/>
								<path class="st6" d="M79.668,33.555c-0.287-9.601-2.726-17.723-7.776-25.894L27.461,35.118L79.668,33.555z"/>
								<path class="st7" d="M71.892,7.661C66.842-0.511,60.67-6.325,52.211-10.876l-24.75,45.994L71.892,7.661z"/>
								<path class="st8" d="M52.211-10.876c-8.459-4.552-16.712-6.5-26.313-6.213l1.563,52.207L52.211-10.876z"/>
								<path class="st9" d="M25.898-17.089c-9.601,0.287-17.723,2.726-25.894,7.776l27.457,44.431L25.898-17.089z"/>
								<path class="st10" d="M0.004-9.313c-8.171,5.05-13.985,11.222-18.537,19.681l45.994,24.75L0.004-9.313z"/>
								<path class="st11" d="M-18.533,10.368c-4.552,8.459-6.5,16.712-6.213,26.313l52.207-1.563L-18.533,10.368z"/>
								<path class="st12" d="M27.461,35.118l-52.207,1.563c0.287,9.601,2.726,17.723,7.776,25.894L27.461,35.118z"/>
								<path class="st13" d="M-16.97,62.575c5.05,8.171,11.222,13.985,19.681,18.537l24.75-45.994L-16.97,62.575z"/>
								<path class="st14" d="M2.711,81.112c8.459,4.552,16.712,6.5,26.313,6.213l-1.563-52.207L2.711,81.112z"/>
								<path class="st15" d="M29.024,87.325c9.601-0.287,17.723-2.726,25.894-7.776L27.461,35.118L29.024,87.325z"/>
							</g>
							<g class="st16">
								<path class="st4" d="M15.459,85.951c9.349,2.207,17.825,1.954,27.024-0.809L27.461,35.118L15.459,85.951z"/>
								<path class="st5" d="M42.483,85.142c9.2-2.763,16.413-7.22,22.999-14.213L27.461,35.118L42.483,85.142z"/>
								<path class="st6" d="M65.482,70.929c6.586-6.993,10.604-14.46,12.811-23.808L27.461,35.118L65.482,70.929z"/>
								<path class="st7" d="M78.294,47.12c2.207-9.349,1.954-17.825-0.809-27.024L27.461,35.118L78.294,47.12z"/>
								<path class="st8" d="M77.485,20.096c-2.763-9.2-7.22-16.413-14.213-22.999L27.461,35.118L77.485,20.096z"/>
								<path class="st9" d="M63.272-2.903c-6.993-6.586-14.46-10.604-23.808-12.811L27.461,35.118L63.272-2.903z"/>
								<path class="st10" d="M39.463-15.715c-9.349-2.207-17.825-1.954-27.024,0.809l15.022,50.024L39.463-15.715z"/>
								<path class="st11" d="M12.439-14.906c-9.2,2.763-16.413,7.22-22.999,14.213l38.021,35.811L12.439-14.906z"/>
								<path class="st12" d="M-10.56-0.693c-6.586,6.993-10.604,14.46-12.811,23.808l50.833,12.002L-10.56-0.693z"/>
								<path class="st13" d="M-23.372,23.116c-2.207,9.349-1.954,17.825,0.809,27.024l50.024-15.022L-23.372,23.116z"/>
								<path class="st14" d="M-8.35,73.139l35.811-38.021L-22.563,50.14C-19.8,59.34-15.342,66.553-8.35,73.139z"/>
								<path class="st15" d="M-8.35,73.139c6.993,6.586,14.46,10.604,23.808,12.811l12.002-50.833L-8.35,73.139z"/>
							</g>
						</g>
						<g class="st16">
							<g>
								<path class="st4" d="M35.825,86.675c9.482-1.538,17.215-5.016,24.658-11.089L27.461,35.118L35.825,86.675z"/>
								<path class="st5" d="M60.483,75.585c7.442-6.073,12.401-12.952,15.809-21.933L27.461,35.118L60.483,75.585z"/>
								<path class="st6" d="M76.292,53.653c3.409-8.981,4.263-17.417,2.725-26.899l-51.557,8.364L76.292,53.653z"/>
								<path class="st7" d="M79.017,26.754c-1.538-9.482-5.016-17.215-11.089-24.658L27.461,35.118L79.017,26.754z"/>
								<path class="st8" d="M67.928,2.096c-6.073-7.442-12.952-12.401-21.933-15.809L27.461,35.118L67.928,2.096z"/>
								<path class="st9" d="M45.996-13.713c-8.981-3.409-17.417-4.263-26.899-2.725l8.364,51.557L45.996-13.713z"/>
								<path class="st10" d="M19.097-16.439C9.615-14.9,1.881-11.422-5.561-5.349l33.022,40.467L19.097-16.439z"/>
								<path class="st11" d="M-5.561-5.349C-13.003,0.724-17.962,7.603-21.37,16.583l48.831,18.535L-5.561-5.349z"/>
								<path class="st12" d="M27.461,35.118L-21.37,16.583c-3.409,8.981-4.263,17.417-2.725,26.899L27.461,35.118z"/>
								<path class="st13" d="M-24.096,43.482c1.538,9.482,5.016,17.215,11.089,24.658l40.467-33.022L-24.096,43.482z"/>
								<path class="st14" d="M-13.006,68.14c6.073,7.442,12.952,12.401,21.933,15.809l18.535-48.831L-13.006,68.14z"/>
								<path class="st15" d="M8.926,83.949c8.981,3.409,17.417,4.263,26.899,2.725l-8.364-51.557L8.926,83.949z"/>
							</g>
							<g class="st16">
								<path class="st4" d="M-3.081,77.488c7.792,5.617,15.72,8.626,25.277,9.594l5.265-51.965L-3.081,77.488z"/>
								<path class="st5" d="M22.196,87.083c9.557,0.968,17.927-0.39,26.688-4.33L27.461,35.118L22.196,87.083z"/>
								<path class="st6" d="M48.884,82.753c8.761-3.94,15.33-9.301,20.947-17.093l-42.37-30.542L48.884,82.753z"/>
								<path class="st7" d="M69.831,65.66c5.617-7.792,8.626-15.72,9.594-25.277l-51.965-5.265L69.831,65.66z"/>
								<path class="st8" d="M79.426,40.383c0.968-9.557-0.39-17.927-4.33-26.688L27.461,35.118L79.426,40.383z"/>
								<path class="st9" d="M75.096,13.695c-3.94-8.761-9.301-15.33-17.093-20.947l-30.542,42.37L75.096,13.695z"/>
								<path class="st10" d="M58.002-7.252c-7.792-5.617-15.72-8.626-25.277-9.594l-5.265,51.965L58.002-7.252z"/>
								<path class="st11" d="M32.726-16.847c-9.557-0.968-17.927,0.39-26.688,4.33l21.423,47.635L32.726-16.847z"/>
								<path class="st12" d="M6.038-12.517c-8.761,3.94-15.33,9.301-20.947,17.093l42.37,30.542L6.038-12.517z"/>
								<path class="st13" d="M-14.909,4.576c-5.617,7.792-8.626,15.72-9.594,25.277l51.965,5.265L-14.909,4.576z"/>
								<path class="st14" d="M-20.174,56.541l47.635-21.423l-51.965-5.265C-25.472,39.41-24.114,47.78-20.174,56.541z"/>
								<path class="st15" d="M-20.174,56.541c3.94,8.761,9.301,15.33,17.093,20.947l30.542-42.37L-20.174,56.541z"/>
							</g>
						</g>
					</g>
				</g>
				<g class="st16">
					<g>
						<g>
							<g>
								<path class="st4" d="M59.141,76.644c7.637-5.826,12.818-12.539,16.519-21.404L27.461,35.118L59.141,76.644z"/>
								<path class="st5" d="M75.66,55.24c3.701-8.864,4.831-17.268,3.604-26.795l-51.803,6.673L75.66,55.24z"/>
								<path class="st6" d="M79.264,28.445c-1.227-9.527-4.45-17.37-10.277-25.007l-41.526,31.68L79.264,28.445z"/>
								<path class="st7" d="M68.987,3.438C63.161-4.199,56.448-9.38,47.583-13.081L27.461,35.118L68.987,3.438z"/>
								<path class="st8" d="M47.583-13.081c-8.864-3.701-17.268-4.831-26.795-3.604l6.673,51.803L47.583-13.081z"/>
								<path class="st9" d="M20.788-16.685c-9.527,1.227-17.37,4.45-25.007,10.277l31.68,41.526L20.788-16.685z"/>
								<path class="st10" d="M-4.219-6.408c-7.637,5.826-12.818,12.539-16.519,21.403l48.199,20.122L-4.219-6.408z"/>
								<path class="st11" d="M-20.738,14.996c-3.701,8.864-4.831,17.268-3.604,26.795l51.803-6.673L-20.738,14.996z"/>
								<path class="st12" d="M27.461,35.118l-51.803,6.673c1.227,9.527,4.45,17.37,10.277,25.007L27.461,35.118z"/>
								<path class="st13" d="M-14.065,66.798c5.826,7.637,12.539,12.818,21.404,16.519l20.122-48.199L-14.065,66.798z"/>
								<path class="st14" d="M7.339,83.317c8.864,3.701,17.268,4.831,26.795,3.604l-6.673-51.803L7.339,83.317z"/>
								<path class="st15" d="M34.134,86.921c9.527-1.227,17.37-4.45,25.007-10.277l-31.68-41.526L34.134,86.921z"/>
							</g>
							<g class="st16">
								<path class="st4" d="M20.499,86.883c9.52,1.28,17.93,0.197,26.815-3.454l-19.853-48.31L20.499,86.883z"/>
								<path class="st5" d="M47.314,83.428c8.885-3.651,15.627-8.794,21.495-16.399L27.461,35.118L47.314,83.428z"/>
								<path class="st6" d="M68.809,67.03c5.869-7.604,9.136-15.429,10.416-24.95l-51.765-6.962L68.809,67.03z"/>
								<path class="st7" d="M79.225,42.08c1.28-9.52,0.197-17.93-3.454-26.815l-48.31,19.853L79.225,42.08z"/>
								<path class="st8" d="M75.771,15.265C72.12,6.38,66.977-0.362,59.372-6.23L27.461,35.118L75.771,15.265z"/>
								<path class="st9" d="M59.372-6.23c-7.604-5.869-15.429-9.136-24.95-10.416l-6.962,51.765L59.372-6.23z"/>
								<path class="st10" d="M34.423-16.647c-9.52-1.28-17.93-0.197-26.815,3.454l19.853,48.31L34.423-16.647z"/>
								<path class="st11" d="M7.608-13.192C-1.277-9.541-8.019-4.398-13.887,3.206l41.348,31.912L7.608-13.192z"/>
								<path class="st12" d="M-13.887,3.206c-5.869,7.604-9.136,15.429-10.416,24.95l51.765,6.962L-13.887,3.206z"/>
								<path class="st13" d="M-24.304,28.156c-1.28,9.52-0.197,17.93,3.454,26.815l48.31-19.853L-24.304,28.156z"/>
								<path class="st14" d="M-4.451,76.466l31.912-41.348l-48.31,19.853C-17.198,63.856-12.055,70.598-4.451,76.466z"/>
								<path class="st15" d="M-4.451,76.466c7.604,5.869,15.429,9.136,24.95,10.416l6.962-51.765L-4.451,76.466z"/>
							</g>
						</g>
						<g class="st16">
							<g>
								<path class="st4" d="M40.838,85.606c9.285-2.46,16.641-6.68,23.452-13.453L27.461,35.118L40.838,85.606z"/>
								<path class="st5" d="M64.29,72.154c6.811-6.773,11.072-14.105,13.584-23.376L27.461,35.118L64.29,72.154z"/>
								<path class="st6" d="M77.874,48.777c2.512-9.271,2.536-17.751,0.075-27.036L27.461,35.118L77.874,48.777z"/>
								<path class="st7" d="M77.949,21.741C75.489,12.455,71.27,5.1,64.496-1.711L27.461,35.118L77.949,21.741z"/>
								<path class="st8" d="M64.496-1.711C57.723-8.523,50.391-12.783,41.12-15.295L27.461,35.118L64.496-1.711z"/>
								<path class="st9" d="M41.12-15.295c-9.271-2.512-17.751-2.536-27.036-0.075l13.377,50.488L41.12-15.295z"/>
								<path class="st10" d="M14.084-15.37C4.798-12.91-2.557-8.691-9.368-1.918l36.829,37.036L14.084-15.37z"/>
								<path class="st11" d="M-9.368-1.918C-16.18,4.856-20.44,12.187-22.952,21.459l50.413,13.659L-9.368-1.918z"/>
								<path class="st12" d="M27.461,35.118l-50.413-13.659c-2.512,9.271-2.536,17.751-0.075,27.036L27.461,35.118z"/>
								<path class="st13" d="M-23.028,48.495c2.46,9.285,6.68,16.641,13.453,23.452l37.036-36.829L-23.028,48.495z"/>
								<path class="st14" d="M-9.575,71.947c6.773,6.811,14.105,11.072,23.376,13.584l13.659-50.413L-9.575,71.947z"/>
								<path class="st15" d="M13.802,85.531c9.271,2.512,17.751,2.536,27.036,0.075L27.461,35.118L13.802,85.531z"/>
							</g>
							<g class="st16">
								<path class="st4" d="M1.219,80.278c8.305,4.826,16.49,7.044,26.096,7.07l0.146-52.23L1.219,80.278z"/>
								<path class="st5" d="M27.315,87.348c9.606,0.027,17.803-2.145,26.135-6.925L27.461,35.118L27.315,87.348z"/>
								<path class="st6" d="M53.45,80.424c8.332-4.78,14.345-10.759,19.171-19.064l-45.16-26.241L53.45,80.424z"/>
								<path class="st7" d="M72.621,61.359c4.826-8.305,7.044-16.49,7.07-26.096l-52.23-0.146L72.621,61.359z"/>
								<path class="st8" d="M79.691,35.264c0.027-9.606-2.145-17.803-6.925-26.135L27.461,35.118L79.691,35.264z"/>
								<path class="st9" d="M72.767,9.129c-4.78-8.332-10.759-14.345-19.064-19.171l-26.241,45.16L72.767,9.129z"/>
								<path class="st10" d="M53.702-10.042c-8.305-4.826-16.49-7.044-26.096-7.07l-0.146,52.23L53.702-10.042z"/>
								<path class="st11" d="M27.607-17.112c-9.606-0.027-17.803,2.145-26.135,6.925l25.989,45.306L27.607-17.112z"/>
								<path class="st12" d="M1.472-10.188C-6.86-5.408-12.873,0.571-17.699,8.877l45.16,26.241L1.472-10.188z"/>
								<path class="st13" d="M-17.699,8.877c-4.826,8.305-7.044,16.49-7.07,26.096l52.23,0.146L-17.699,8.877z"/>
								<path class="st14" d="M-17.845,61.107l45.306-25.989l-52.23-0.146C-24.796,44.578-22.624,52.775-17.845,61.107z"/>
								<path class="st15" d="M-17.845,61.107c4.78,8.332,10.759,14.345,19.064,19.171l26.241-45.16L-17.845,61.107z"/>
							</g>
						</g>
					</g>
					<g class="st16">
						<g>
							<g>
								<path class="st4" d="M50.431,82.027c8.627-4.224,15.018-9.798,20.377-17.77L27.461,35.118L50.431,82.027z"/>
								<path class="st5" d="M70.808,64.257c5.359-7.972,8.107-15.994,8.762-25.577l-52.109-3.562L70.808,64.257z"/>
								<path class="st6" d="M79.57,38.68c0.655-9.583-0.976-17.905-5.201-26.532l-46.909,22.97L79.57,38.68z"/>
								<path class="st7" d="M74.369,12.148C70.145,3.521,64.572-2.87,56.6-8.229L27.461,35.118L74.369,12.148z"/>
								<path class="st8" d="M56.6-8.229c-7.972-5.359-15.994-8.107-25.577-8.762l-3.562,52.109L56.6-8.229z"/>
								<path class="st9" d="M31.022-16.991c-9.583-0.655-17.905,0.976-26.532,5.201l22.97,46.908L31.022-16.991z"/>
								<path class="st10" d="M4.491-11.791c-8.627,4.224-15.018,9.798-20.377,17.77l43.347,29.139L4.491-11.791z"/>
								<path class="st11" d="M-15.886,5.979c-5.359,7.972-8.107,15.994-8.762,25.577l52.109,3.562L-15.886,5.979z"/>
								<path class="st12" d="M27.461,35.118l-52.109-3.562c-0.655,9.583,0.976,17.905,5.201,26.532L27.461,35.118z"/>
								<path class="st13" d="M-19.448,58.088c4.224,8.627,9.798,15.018,17.77,20.377l29.139-43.347L-19.448,58.088z"/>
								<path class="st14" d="M-1.678,78.465c7.972,5.359,15.994,8.107,25.577,8.762l3.562-52.109L-1.678,78.465z"/>
								<path class="st15" d="M23.899,87.227c9.583,0.655,17.905-0.976,26.532-5.201l-22.97-46.909L23.899,87.227z"/>
							</g>
							<g class="st16">
								<path class="st4" d="M10.534,84.53c9.087,3.113,17.547,3.691,26.974,1.844L27.461,35.118L10.534,84.53z"/>
								<path class="st5" d="M37.508,86.373c9.426-1.848,17.042-5.577,24.282-11.89L27.461,35.118L37.508,86.373z"/>
								<path class="st6" d="M61.789,74.483c7.24-6.313,11.97-13.351,15.083-22.438L27.461,35.118L61.789,74.483z"/>
								<path class="st7" d="M76.873,52.045c3.113-9.087,3.691-17.547,1.844-26.974L27.461,35.118L76.873,52.045z"/>
								<path class="st8" d="M78.716,25.071c-1.848-9.426-5.577-17.042-11.89-24.282L27.461,35.118L78.716,25.071z"/>
								<path class="st9" d="M66.826,0.79c-6.313-7.24-13.351-11.97-22.438-15.083L27.461,35.118L66.826,0.79z"/>
								<path class="st10" d="M44.388-14.294c-9.087-3.113-17.547-3.691-26.974-1.844l10.047,51.255L44.388-14.294z"/>
								<path class="st11" d="M17.414-16.137C7.988-14.29,0.372-10.56-6.867-4.247l34.328,39.365L17.414-16.137z"/>
								<path class="st12" d="M-6.867-4.247c-7.24,6.313-11.97,13.351-15.083,22.438l49.412,16.927L-6.867-4.247z"/>
								<path class="st13" d="M-21.951,18.191c-3.113,9.087-3.691,17.547-1.844,26.974l51.255-10.047L-21.951,18.191z"/>
								<path class="st14" d="M-11.904,69.446l39.365-34.328l-51.255,10.047C-21.947,54.591-18.217,62.207-11.904,69.446z"/>
								<path class="st15" d="M-11.904,69.446c6.313,7.24,13.351,11.97,22.438,15.083l16.927-49.412L-11.904,69.446z"/>
							</g>
						</g>
						<g class="st16">
							<g>
								<path class="st4" d="M30.731,87.246c9.587-0.601,17.624-3.305,25.626-8.619L27.461,35.118L30.731,87.246z"/>
								<path class="st5" d="M56.357,78.627c8.002-5.314,13.611-11.674,17.883-20.277l-46.78-23.232L56.357,78.627z"/>
								<path class="st6" d="M74.24,58.35c4.273-8.603,5.95-16.915,5.349-26.502l-52.128,3.271L74.24,58.35z"/>
								<path class="st7" d="M79.589,31.847c-0.602-9.587-3.305-17.624-8.619-25.626L27.461,35.118L79.589,31.847z"/>
								<path class="st8" d="M70.97,6.222C65.656-1.78,59.296-7.389,50.693-11.662l-23.232,46.78L70.97,6.222z"/>
								<path class="st9" d="M50.693-11.662c-8.603-4.273-16.915-5.95-26.502-5.349l3.271,52.128L50.693-11.662z"/>
								<path class="st10" d="M24.19-17.01c-9.587,0.601-17.624,3.305-25.626,8.619l28.896,43.509L24.19-17.01z"/>
								<path class="st11" d="M-1.435-8.391C-9.437-3.077-15.046,3.283-19.319,11.886l46.78,23.232L-1.435-8.391z"/>
								<path class="st12" d="M27.461,35.118l-46.78-23.232c-4.273,8.603-5.95,16.915-5.349,26.502L27.461,35.118z"/>
								<path class="st13" d="M-24.667,38.389c0.602,9.587,3.305,17.624,8.619,25.626l43.509-28.896L-24.667,38.389z"/>
								<path class="st14" d="M-16.048,64.014c5.314,8.002,11.674,13.611,20.277,17.883l23.232-46.78L-16.048,64.014z"/>
								<path class="st15" d="M4.229,81.898c8.603,4.273,16.915,5.95,26.502,5.349l-3.271-52.128L4.229,81.898z"/>
							</g>
							<g class="st16">
								<path class="st4" d="M-7.087,74.291c7.204,6.354,14.799,10.125,24.215,12.026l10.333-51.198L-7.087,74.291z"/>
								<path class="st5" d="M17.128,86.316c9.416,1.9,17.879,1.369,26.983-1.693L27.461,35.118L17.128,86.316z"/>
								<path class="st6" d="M44.112,84.623c9.105-3.062,16.168-7.754,22.522-14.958L27.461,35.118L44.112,84.623z"/>
								<path class="st7" d="M66.634,69.666c6.354-7.204,10.125-14.799,12.026-24.215L27.461,35.118L66.634,69.666z"/>
								<path class="st8" d="M78.659,45.451c1.9-9.416,1.369-17.879-1.693-26.983L27.461,35.118L78.659,45.451z"/>
								<path class="st9" d="M76.966,18.467C73.904,9.363,69.213,2.299,62.008-4.055L27.461,35.118L76.966,18.467z"/>
								<path class="st10" d="M62.008-4.055C54.804-10.408,47.209-14.18,37.794-16.08L27.461,35.118L62.008-4.055z"/>
								<path class="st11" d="M37.794-16.08c-9.416-1.9-17.879-1.369-26.984,1.693l16.651,49.505L37.794-16.08z"/>
								<path class="st12" d="M10.81-14.387C1.706-11.325-5.358-6.634-11.712,0.57l39.173,34.548L10.81-14.387z"/>
								<path class="st13" d="M-11.712,0.57c-6.354,7.204-10.125,14.799-12.026,24.215l51.198,10.333L-11.712,0.57z"/>
								<path class="st14" d="M-22.044,51.769l49.505-16.651l-51.198-10.333C-25.638,34.201-25.107,42.664-22.044,51.769z"/>
								<path class="st15" d="M-22.044,51.769c3.062,9.105,7.754,16.168,14.958,22.522l34.548-39.173L-22.044,51.769z"/>
							</g>
						</g>
					</g>
				</g>
			</g>
		</g>
	</g>
</g>
</svg>
